<svg width="53" height="51" viewBox="0 0 53 51" fill="none" xmlns="http://www.w3.org/2000/svg">
<path fill-rule="evenodd" clip-rule="evenodd" d="M20.0245 0.812353C4.63021 4.78809 -3.80807 20.1555 1.6795 34.2209C5.01803 42.7787 12.2263 48.4835 22.4355 50.6472L24.0993 51L24.0993 40.8349L24.0993 30.6699L20.7717 30.6699L17.444 30.6699L17.444 28.6391L17.444 26.6083L20.7717 26.6083L24.0993 26.6083L24.1017 22.1115C24.1035 18.6254 24.3782 17.183 25.3251 15.6941C26.8092 13.3593 30.0037 11.9806 33.3828 12.2168C35.6226 12.3735 35.9185 12.5672 36.0885 13.9882C36.2385 15.2381 36.0286 15.5839 35.1204 15.5839C32.857 15.5839 30.3069 16.8221 29.628 18.2512C29.2493 19.0478 28.9395 21.2545 28.9395 23.1541L28.9395 26.6083L32.6404 26.6083C36.1829 26.6083 36.325 26.664 35.9759 27.9138C35.7757 28.6321 35.6075 29.546 35.6032 29.9446C35.5972 30.436 34.5215 30.6699 32.2671 30.6699L28.9395 30.6699L28.9395 40.8349L28.9395 51L30.6033 50.6472C40.8125 48.4835 48.0208 42.7787 51.3593 34.2209C54.9477 25.0236 52.5355 14.4785 45.2437 7.48559C38.6126 1.12684 28.83 -1.46215 20.0245 0.812353ZM20.8431 2.84664C17.0145 3.76921 11.5656 6.86184 8.92044 9.61387C7.56216 11.0273 5.58857 13.9285 4.53583 16.0597C2.80182 19.5695 2.62092 20.459 2.62092 25.478C2.62092 30.7186 2.74495 31.2611 4.90308 35.4492C8.09035 41.6333 13.2742 45.7768 20.3179 47.7699L21.6792 48.1551L21.6792 40.5727L21.6792 32.9908L18.3516 32.9908L15.0239 32.9908L15.0239 28.6391L15.0239 24.2873L18.3516 24.2873L21.6792 24.2873L21.6925 20.951C21.7246 12.9055 27.1008 8.7766 35.8973 10.0415L38.6199 10.4332L38.6199 14.1687L38.6199 17.9048L36.1599 17.9048C32.3264 17.9048 31.3596 18.6684 31.3596 21.6966L31.3596 24.2873L35.0599 24.2873L38.7609 24.2873L38.3265 28.2039C38.0875 30.3577 37.7674 32.316 37.6149 32.5556C37.4631 32.7947 35.9935 32.9908 34.349 32.9908L31.3596 32.9908L31.3596 40.5727L31.3596 48.1551L32.7209 47.7699C39.6829 45.8 45.3968 41.125 48.486 34.8713C50.2388 31.322 50.4179 30.4471 50.4179 25.4176C50.4179 20.1868 50.2908 19.6292 48.1581 15.491C44.07 7.55754 36.8066 2.90234 27.8801 2.49502C25.3015 2.37724 22.1348 2.53564 20.8431 2.84664Z" fill="#025213"/>
</svg>
