<svg width="52" height="51" viewBox="0 0 52 51" fill="none" xmlns="http://www.w3.org/2000/svg">
<path fill-rule="evenodd" clip-rule="evenodd" d="M11.0539 0.363619C6.88313 1.65704 3.25687 4.6643 1.11292 8.60713C0.111173 10.449 1.26778e-10 12.1447 2.66864e-10 25.5643C4.06949e-10 38.9838 0.111173 40.6795 1.11292 42.5214C2.66635 45.3784 5.54965 48.2453 8.36782 49.7358C10.6403 50.9374 11.5129 51 26 51C39.7172 51 41.4506 50.8912 43.3333 49.9112C46.2537 48.3915 49.1842 45.5708 50.7078 42.8138C51.936 40.5907 52 39.7369 52 25.5643C52 11.3916 51.936 10.5379 50.7078 8.31477C49.1842 5.55777 46.2537 2.73704 43.3333 1.21732C41.4811 0.253105 39.5989 0.115693 26.8966 0.0139506C19.0069 -0.0492002 11.8775 0.108092 11.0539 0.363619ZM9.19264 3.80884C6.8646 4.99877 5.50543 6.21851 4.19287 8.29489L2.3908 11.1466L2.3908 25.5643L2.3908 39.9819L4.19287 42.8337C5.50543 44.91 6.8646 46.1298 9.19264 47.3197L12.3891 48.9534L26 48.9534L39.6109 48.9534L42.8074 47.3197C45.1354 46.1298 46.4946 44.91 47.8071 42.8337L49.6092 39.9819L49.6092 25.5643L49.6092 11.1466L47.8071 8.29489C46.4946 6.21851 45.1354 4.99877 42.8074 3.80884L39.6109 2.17511L26 2.17511L12.3891 2.17511L9.19264 3.80884ZM38.5756 10.0409C36.9875 11.9126 39.3198 14.7877 41.3908 13.5118C42.7189 12.6938 43.0434 11.1361 42.114 10.0409C41.1912 8.95271 39.4985 8.95271 38.5756 10.0409ZM20.9195 13.7989C12.3204 17.6582 10.2392 28.147 16.7996 34.565C23.36 40.983 34.0815 38.947 38.0263 30.5345C41.7799 22.5301 35.1586 12.726 26 12.726C24.5207 12.726 22.2345 13.209 20.9195 13.7989ZM21.2005 16.3548C13.3568 20.231 13.3568 30.8976 21.2005 34.7738C24.5739 36.4408 27.4261 36.4408 30.7995 34.7738C38.6432 30.8976 38.6432 20.231 30.7995 16.3548C29.3352 15.6315 27.1757 15.0392 26 15.0392C24.8243 15.0392 22.6648 15.6315 21.2005 16.3548Z" fill="#025213"/>
</svg>
