<svg width="763" height="678" viewBox="0 0 763 678" fill="none" xmlns="http://www.w3.org/2000/svg">
<path d="M442.901 459.469C434.199 458.034 425.495 456.598 419.189 455.477C412.884 454.356 408.975 453.55 401.801 451.434C394.628 449.318 384.19 445.891 371.464 441.025C358.739 436.159 343.726 429.853 332.382 423.991C321.038 418.128 313.361 412.708 299.998 404.388C286.636 396.068 267.586 384.849 250.622 377.959C233.657 371.069 218.778 368.51 206.083 367.208C193.388 365.906 182.876 365.86 172.168 366.527C161.461 367.193 150.558 368.57 138.819 371.907C127.08 375.244 114.504 380.541 102.555 387.659C90.6065 394.776 79.2843 403.715 69.0348 414.084C58.7854 424.452 49.6087 436.251 42.8152 447.99C36.0221 459.729 31.6122 471.409 28.7523 485.532C25.8919 499.655 24.581 516.221 25.2765 530.33C25.972 544.44 28.674 556.092 31.8472 566.621C35.0209 577.15 38.6655 586.557 43.8096 595.747C48.9541 604.937 55.5977 613.913 64.2234 623.048C72.8487 632.184 83.4556 641.48 97.1614 649.823C110.867 658.165 127.672 665.555 144.535 669.905C161.4 674.255 178.323 675.566 192.923 675.267C207.522 674.969 219.798 673.063 232.312 669.666C244.826 666.27 257.578 661.383 269.377 655.364C281.176 649.346 292.021 642.195 301.675 632.958C311.328 623.722 319.79 612.4 327.299 599.707C334.807 587.014 341.362 572.951 344.988 559.888C348.614 546.825 349.311 534.761 349.311 523.618C349.311 512.475 348.614 502.251 348.265 497.139C347.917 492.028 347.917 492.028 347.917 492.028" stroke="#33613D" stroke-width="5.33329" stroke-miterlimit="22.9256" stroke-linecap="round"/>
<path fill-rule="evenodd" clip-rule="evenodd" d="M467.038 163.907C537.335 163.907 594.322 216.732 594.322 281.896C594.322 347.059 537.335 399.884 467.038 399.884C396.741 399.884 339.753 347.059 339.753 281.896C339.753 216.732 396.741 163.907 467.038 163.907Z" stroke="#EE4137" stroke-width="5.33329" stroke-miterlimit="22.9256"/>
<path d="M445.603 165.573L446.88 212.081L446.88 238.002L445.681 262.317L442.284 287.702L433.346 315.77L422.441 338.116L415.111 350.451L407.066 361.356L399.558 370.295L390.348 376.072" stroke="#EE4137" stroke-width="5.33329" stroke-miterlimit="22.9256"/>
<path d="M445.937 177.766L457.225 178.749L468.04 179.374L479.482 178.659L495.392 173.832L505.263 169.32" stroke="#EE4137" stroke-width="5.33329" stroke-miterlimit="22.9256"/>
<path d="M456.956 164.272L465.805 165.967L475.101 166.503L481.537 166.503L485.121 165.089" stroke="#EE4137" stroke-width="5.33329" stroke-miterlimit="22.9256"/>
<path d="M446.283 190.37L459.01 190.995L472.24 190.995L490.653 190.548L499.055 188.492L512.553 184.023L522.027 180L526.081 177.343" stroke="#EE4137" stroke-width="5.33329" stroke-miterlimit="22.9256"/>
<path d="M446.617 202.514L456.954 203.15L468.128 204.58L479.033 205.296L495.033 204.849L509.692 201.81L527.837 196L539.01 190.726L544.269 188.102" stroke="#EE4137" stroke-width="5.33329" stroke-miterlimit="22.9256"/>
<path d="M518.764 198.904L508.172 206.546L495.568 213.608L485.289 221.474L479.3 226.211L471.166 233.63L462.272 242.524L450.919 253.876L445.847 258.949" stroke="#EE4137" stroke-width="5.33329" stroke-miterlimit="22.9256"/>
<path d="M475.807 205.084L468.22 210.541L460.629 217.229L454.716 224.448L446.88 232.284" stroke="#EE4137" stroke-width="5.33329" stroke-miterlimit="22.9256"/>
<path d="M545.345 188.872L539.718 199.042L534.355 211.914L526.311 230.149L519.339 248.919L512.545 269.657L506.288 294.506L503.786 314.17L500.389 333.478L498.601 356.36L495.971 396.823" stroke="#EE4137" stroke-width="5.33329" stroke-miterlimit="22.9256"/>
<path d="M552.682 194.611L547.942 202.441L542.579 216.921L536.322 234.798L529.528 256.966L524.522 276.273L520.658 296.474L517.73 317.749L515.584 340.274L514.154 366.017L513.26 382.821L513.26 391.864" stroke="#EE4137" stroke-width="5.33329" stroke-miterlimit="22.9256"/>
<path d="M530.759 384.057L530.854 384.006" stroke="#373435" stroke-width="5.33329" stroke-miterlimit="22.9256"/>
<path d="M530.708 384.005L529.705 370.216L532.029 341.613L535.426 310.685L542.219 275.289L553.302 241.144L566.212 207.93" stroke="#EE4137" stroke-width="5.33329" stroke-miterlimit="22.9256"/>
<path d="M578.768 225.33L572.788 233.972L567.782 250.617L560.095 272.785L555.805 290.305L551.872 310.505L549.905 334.639L547.402 365.566L547.402 373.398" stroke="#EE4137" stroke-width="5.33329" stroke-miterlimit="22.9256"/>
<path d="M563.036 359.375L563.036 343.041L565.279 323.555L568.497 304.785L572.43 287.801L582.441 263.488L589.556 249.804" stroke="#EE4137" stroke-width="5.33329" stroke-miterlimit="22.9256"/>
<path d="M594.186 276.39L590.844 288.159L587.09 301.567L583.872 315.153L582.084 325.343L582.532 331.557" stroke="#EE4137" stroke-width="5.33329" stroke-miterlimit="22.9256"/>
<path d="M429.804 169.036L429.804 181.795L431.917 198.242L431.917 217.907L431.917 249.728L429.771 270.466L424.766 293.348L416.9 314.443L407.246 334.465L394.018 353.773L383.291 364.499L379.894 367.896" stroke="#EE4137" stroke-width="5.33329" stroke-miterlimit="22.9256"/>
<path d="M369.271 357.452L379.715 348.768L392.765 329.46L403.67 306.399L411.179 282.622L414.218 259.918L415.469 239.718L415.469 215.762L415.469 187.159L414.387 174.443" stroke="#EE4137" stroke-width="5.33329" stroke-miterlimit="22.9256"/>
<path d="M402.521 180.166L403.772 203.069L403.772 209.504L403.849 222.287L403.491 258.756L399.648 274.668L393.569 297.73L385.346 315.249L376.228 331.875L365.591 342.512L360.314 346.221" stroke="#EE4137" stroke-width="5.33329" stroke-miterlimit="22.9256"/>
<path d="M387.679 189.641L389.098 206.899L389.098 225.557L389.098 248.388L387.132 261.795L383.735 278.6L378.014 293.081L369.97 308.634L361.032 320.969L356.115 325.885L350.146 328.668" stroke="#EE4137" stroke-width="5.33329" stroke-miterlimit="22.9256"/>
<path d="M343.898 311.871L351.021 308.456L360.674 294.154L368.183 276.992L372.295 261.975L374.082 240.701L374.082 201.295" stroke="#EE4137" stroke-width="5.33329" stroke-miterlimit="22.9256"/>
<path d="M358.825 219.743L358.825 245.528L357.701 255.294L353.166 267.516L347.981 276.276L344.943 280.924L339.767 283.608" stroke="#EE4137" stroke-width="5.33329" stroke-miterlimit="22.9256"/>
<path d="M444.285 285.702L463.592 266.395L474.497 255.49L487.243 246.783L505.835 234.269L529.026 223.995" stroke="#EE4137" stroke-width="5.33329" stroke-miterlimit="22.9256"/>
<path d="M400.594 382.553L412.336 365.042L424.136 348.059L438.08 326.695L459.354 300.416L480.359 279.411L504.315 260.014L519.339 249.556" stroke="#EE4137" stroke-width="5.33329" stroke-miterlimit="22.9256"/>
<path d="M510.843 276.418L495.29 287.582L477.571 301.866L462.929 316.506L449.164 334.115L433.611 355.389L421.097 375.769L412.516 388.542" stroke="#EE4137" stroke-width="5.33329" stroke-miterlimit="22.9256"/>
<path d="M430.075 394.833L438.08 380.059L453.99 355.747L466.147 338.763L485.096 319.814L499.577 307.3L505.037 304.339" stroke="#EE4137" stroke-width="5.33329" stroke-miterlimit="22.9256"/>
<path d="M500.71 331.655L489.744 338.585L475.084 351.635L458.816 372.015L448.269 389.892L444.093 397.972" stroke="#EE4137" stroke-width="5.33329" stroke-miterlimit="22.9256"/>
<path d="M459.542 399.684L467.039 385.602L477.05 369.334L492.425 356.105L499.146 349.384" stroke="#EE4137" stroke-width="5.33329" stroke-miterlimit="22.9256"/>
<path d="M475.111 399.651L479.554 390.965L485.989 384.529L493.408 377.11L497.365 375.396" stroke="#EE4137" stroke-width="5.33329" stroke-miterlimit="22.9256"/>
<path fill-rule="evenodd" clip-rule="evenodd" d="M472.339 541.814C477.078 541.814 480.921 546.297 480.921 551.825C480.921 557.354 477.078 561.836 472.339 561.836C467.6 561.836 463.758 557.354 463.758 551.825C463.758 546.297 467.6 541.814 472.339 541.814Z" fill="#EE4137" stroke="#EE4137" stroke-width="5.33329" stroke-miterlimit="22.9256"/>
<path fill-rule="evenodd" clip-rule="evenodd" d="M538.842 509.276C543.581 509.276 547.423 513.759 547.423 519.287C547.423 524.816 543.581 529.298 538.842 529.298C534.102 529.298 530.261 524.816 530.261 519.287C530.261 513.759 534.102 509.276 538.842 509.276Z" fill="#EE4137" stroke="#EE4137" stroke-width="5.33329" stroke-miterlimit="22.9256"/>
<path fill-rule="evenodd" clip-rule="evenodd" d="M617.144 501.411C621.883 501.411 625.725 505.893 625.725 511.422C625.725 516.951 621.883 521.433 617.144 521.433C612.404 521.433 608.563 516.951 608.563 511.422C608.563 505.893 612.404 501.411 617.144 501.411Z" fill="#EE4137" stroke="#EE4137" stroke-width="5.33329" stroke-miterlimit="22.9256"/>
<path fill-rule="evenodd" clip-rule="evenodd" d="M655.043 437.769C659.783 437.769 663.625 442.251 663.625 447.779C663.625 453.308 659.783 457.791 655.043 457.791C650.305 457.791 646.462 453.308 646.462 447.779C646.462 442.251 650.305 437.769 655.043 437.769Z" fill="#EE4137" stroke="#EE4137" stroke-width="5.33329" stroke-miterlimit="22.9256"/>
<path fill-rule="evenodd" clip-rule="evenodd" d="M714.395 399.153C719.135 399.153 722.976 403.636 722.976 409.164C722.976 414.693 719.135 419.175 714.395 419.175C709.656 419.175 705.814 414.693 705.814 409.164C705.814 403.636 709.656 399.153 714.395 399.153Z" fill="#EE4137" stroke="#EE4137" stroke-width="5.33329" stroke-miterlimit="22.9256"/>
<path fill-rule="evenodd" clip-rule="evenodd" d="M708.674 341.232C713.413 341.232 717.256 345.715 717.256 351.243C717.256 356.772 713.413 361.254 708.674 361.254C703.935 361.254 700.093 356.772 700.093 351.243C700.093 345.715 703.935 341.232 708.674 341.232Z" fill="#EE4137" stroke="#EE4137" stroke-width="5.33329" stroke-miterlimit="22.9256"/>
<path fill-rule="evenodd" clip-rule="evenodd" d="M742.998 272.585C747.738 272.585 751.579 277.067 751.579 282.596C751.579 288.125 747.738 292.607 742.998 292.607C738.259 292.607 734.417 288.125 734.417 282.596C734.417 277.067 738.259 272.585 742.998 272.585Z" fill="#EE4137" stroke="#EE4137" stroke-width="5.33329" stroke-miterlimit="22.9256"/>
<path fill-rule="evenodd" clip-rule="evenodd" d="M707.244 208.229C711.983 208.229 715.825 212.71 715.825 218.239C715.825 223.768 711.983 228.25 707.244 228.25C702.505 228.25 698.663 223.768 698.663 218.239C698.663 212.71 702.505 208.229 707.244 208.229Z" fill="#EE4137" stroke="#EE4137" stroke-width="5.33329" stroke-miterlimit="22.9256"/>
<path fill-rule="evenodd" clip-rule="evenodd" d="M703.669 139.58C708.408 139.58 712.251 144.062 712.251 149.591C712.251 155.12 708.408 159.602 703.669 159.602C698.93 159.602 695.088 155.12 695.088 149.591C695.088 144.062 698.93 139.58 703.669 139.58Z" fill="#EE4137" stroke="#EE4137" stroke-width="5.33329" stroke-miterlimit="22.9256"/>
<path fill-rule="evenodd" clip-rule="evenodd" d="M647.178 106.687C651.917 106.687 655.759 111.168 655.759 116.697C655.759 122.226 651.917 126.708 647.178 126.708C642.438 126.708 638.597 122.226 638.597 116.697C638.597 111.168 642.438 106.687 647.178 106.687Z" fill="#EE4137" stroke="#EE4137" stroke-width="5.33329" stroke-miterlimit="22.9256"/>
<path fill-rule="evenodd" clip-rule="evenodd" d="M612.854 45.9043C617.593 45.9043 621.435 50.3862 621.435 55.9152C621.435 61.4437 617.593 65.926 612.854 65.926C608.115 65.926 604.272 61.4437 604.272 55.9152C604.272 50.3862 608.115 45.9043 612.854 45.9043Z" fill="#EE4137" stroke="#EE4137" stroke-width="5.33329" stroke-miterlimit="22.9256"/>
<path fill-rule="evenodd" clip-rule="evenodd" d="M542.775 40.8994C547.515 40.8994 551.357 45.3817 551.357 50.9107C551.357 56.4393 547.515 60.9216 542.775 60.9216C538.037 60.9216 534.195 56.4393 534.195 50.9107C534.195 45.3817 538.037 40.8994 542.775 40.8994Z" fill="#EE4137" stroke="#EE4137" stroke-width="5.33329" stroke-miterlimit="22.9256"/>
<path fill-rule="evenodd" clip-rule="evenodd" d="M481.279 3C486.018 3 489.861 7.48188 489.861 13.0109C489.861 18.5399 486.018 23.0217 481.279 23.0217C476.54 23.0217 472.698 18.5399 472.698 13.0109C472.698 7.48188 476.54 3 481.279 3Z" fill="#EE4137" stroke="#EE4137" stroke-width="5.33329" stroke-miterlimit="22.9256"/>
<path fill-rule="evenodd" clip-rule="evenodd" d="M419.783 33.749C424.522 33.749 428.364 38.2309 428.364 43.7599C428.364 49.2884 424.522 53.7708 419.783 53.7708C415.044 53.7708 411.202 49.2884 411.202 43.7599C411.202 38.2309 415.044 33.749 419.783 33.749Z" fill="#EE4137" stroke="#EE4137" stroke-width="5.33329" stroke-miterlimit="22.9256"/>
<path fill-rule="evenodd" clip-rule="evenodd" d="M292.612 325.368C296.517 325.368 299.683 328.724 299.683 332.863C299.683 337.003 296.517 340.359 292.612 340.359C288.707 340.359 285.542 337.003 285.542 332.863C285.542 328.724 288.707 325.368 292.612 325.368Z" fill="#EE4137" stroke="#373435" stroke-width="5.33329" stroke-miterlimit="22.9256"/>
<path fill-rule="evenodd" clip-rule="evenodd" d="M186.666 407.679C254.109 407.679 308.783 458.57 308.783 521.346C308.783 584.122 254.109 635.013 186.666 635.013C119.223 635.013 64.5488 584.122 64.5488 521.346C64.5488 458.57 119.223 407.679 186.666 407.679Z" stroke="#33613D" stroke-width="5.33329" stroke-miterlimit="22.9256"/>
<path d="M421.772 53.5L429.995 105.782" stroke="#EE4137" stroke-width="5.33329" stroke-miterlimit="22.9256"/>
<path d="M699.08 221.33L650.036 241.757" stroke="#EE4137" stroke-width="5.33329" stroke-miterlimit="22.9256"/>
<path d="M734.418 282.597L655.042 282.597" stroke="#EE4137" stroke-width="5.33329" stroke-miterlimit="22.9256"/>
<path d="M700.489 348.232L652.896 328.46" stroke="#EE4137" stroke-width="5.33329" stroke-miterlimit="22.9256"/>
<path d="M706.362 405.637L636.449 369.578" stroke="#EE4137" stroke-width="5.33329" stroke-miterlimit="22.9256"/>
<path d="M648.058 441.963L608.203 409.266" stroke="#EE4137" stroke-width="5.33329" stroke-miterlimit="22.9256"/>
<path d="M612.469 503.025L572.448 437.155" stroke="#EE4137" stroke-width="5.33329" stroke-miterlimit="22.9256"/>
<path d="M536.437 509.675L525.968 457.535" stroke="#EE4137" stroke-width="5.33329" stroke-miterlimit="22.9256"/>
<path d="M473.997 543.472L473.997 464.686" stroke="#EE4137" stroke-width="5.33329" stroke-miterlimit="22.9256"/>
<path d="M65.9978 189.506L65.0322 193.796C61.8747 194.54 59.2592 194.926 57.2326 194.926C55.3009 194.926 52.0957 194.694 47.6426 194.258C44.2731 193.95 41.2804 193.796 38.5947 193.796C33.9998 193.796 29.2635 194.258 24.3855 195.157L25.352 191.021C29.9937 190.508 33.3866 189.455 35.484 187.862C37.0155 186.706 38.3115 184.728 39.3955 181.954C40.4791 179.154 42.9298 169.445 46.7468 152.774L55.5832 112.909L56.0545 111.008C53.3449 110.906 51.2948 110.854 49.9281 110.854C41.3983 110.854 34.6593 111.881 29.6637 113.885C24.6686 115.889 20.9219 118.791 18.4009 122.618C15.9029 126.42 14.6542 130.53 14.6542 134.948C14.6542 136.515 14.8896 137.927 15.4082 139.237C15.7616 140.136 16.7749 141.601 18.4478 143.604C20.0031 145.454 20.7805 147.175 20.7805 148.716C20.7805 150.077 20.3331 151.233 19.4138 152.183C18.495 153.134 17.3876 153.622 16.0916 153.622C14.1594 153.622 12.6041 152.595 11.4021 150.591C9.65909 147.637 8.78711 143.887 8.78711 139.314C8.78711 133.201 10.5072 127.242 13.9947 121.488C17.4583 115.709 22.2413 111.24 28.3209 108.08C34.4 104.92 41.7751 103.353 50.4701 103.353C54.6171 103.353 61.2148 103.996 70.2866 105.306C76.7195 106.205 81.4085 106.642 84.3067 106.642C87.2049 106.642 89.2549 106.128 90.433 105.075C91.6345 104.021 92.2472 102.609 92.2472 100.862C92.2472 100.503 92.177 99.8092 92.0352 98.7559C91.8939 97.8051 91.8232 97.1631 91.8232 96.8804C91.8232 95.5196 92.2472 94.3892 93.0719 93.4902C93.8967 92.5912 94.8866 92.1289 96.0408 92.1289C97.4075 92.1289 98.5622 92.6682 99.4576 93.7729C100.353 94.8772 100.801 96.3673 100.801 98.2165C100.801 102.043 98.9395 105.331 95.2166 108.08C91.4698 110.854 85.2489 112.215 76.5075 112.215C73.373 112.215 70.0273 112.062 66.493 111.779C66.0217 113.577 64.5843 119.691 62.1336 130.119L56.1252 156.165L52.4729 172.039L48.6794 190.174C51.7657 190.585 54.3105 190.79 56.3372 190.79C59.424 190.79 62.6522 190.353 65.9978 189.506ZM116.47 174.916L118.756 178.229C107.469 189.917 97.8082 195.748 89.7497 195.748C86.4743 195.748 84.0001 194.54 82.2562 192.152C80.5365 189.737 79.6645 185.858 79.6645 180.541C79.6645 169.804 82.6573 159.119 88.6418 148.485C95.3574 136.412 103.393 130.35 112.747 130.35C115.999 130.35 118.497 131.25 120.24 133.021C121.96 134.819 122.808 137.26 122.808 140.368C122.808 143.63 121.795 146.841 119.722 150C117.648 153.16 113.949 156.447 108.6 159.864C105.937 161.508 100.212 164.487 91.4698 168.802C91.0687 171.525 90.8571 174.094 90.8571 176.56C90.8571 180.13 91.3752 182.596 92.412 184.009C93.4487 185.422 94.9568 186.115 96.9362 186.115C98.8215 186.115 100.895 185.55 103.157 184.394C106.173 182.828 110.626 179.668 116.47 174.916ZM92.3179 163.999C99.7164 160.377 105.278 156.499 109.024 152.337C111.546 149.409 112.818 146.532 112.818 143.681C112.818 141.523 112.299 139.803 111.262 138.518C110.226 137.234 108.882 136.592 107.21 136.592C105.513 136.592 103.863 137.311 102.238 138.698C100.094 140.573 98.2561 143.373 96.7949 147.149C94.6741 152.646 93.1894 158.271 92.3179 163.999ZM141.117 193.796L130.82 193.796L135.65 173.555C138.006 163.614 140.056 154.187 141.8 145.248C142.225 143.039 142.412 141.678 142.412 141.113C142.412 139.905 141.918 139.314 140.905 139.314C140.221 139.314 139.161 139.828 137.724 140.856C136.31 141.883 133.718 144.426 129.995 148.485L127.851 145.864C132.281 140.702 136.687 136.823 141.069 134.229C145.476 131.66 148.846 130.35 151.202 130.35C152.027 130.35 152.663 130.581 153.157 130.992C153.629 131.429 153.888 131.968 153.888 132.61C153.888 133.278 153.582 134.999 152.993 137.8L150.024 151.285C154.666 143.296 159.92 136.489 165.764 130.812C168.568 128.09 170.901 126.754 172.785 126.754C174.176 126.754 175.33 127.242 176.249 128.218C177.169 129.195 177.639 130.325 177.639 131.634C177.639 132.996 177.192 134.152 176.273 135.102C175.378 136.053 173.139 137.182 169.557 138.493C166.141 139.751 163.384 141.241 161.239 142.988C159.096 144.76 156.739 147.431 154.195 151.053C151.65 154.675 149.859 157.809 148.846 160.506C147.832 163.177 146.277 169.419 144.227 179.206L141.117 193.796ZM183.507 193.796L173.209 193.796L178.04 173.555C180.396 163.614 182.446 154.187 184.19 145.248C184.614 143.039 184.803 141.678 184.803 141.113C184.803 139.905 184.308 139.314 183.295 139.314C182.611 139.314 181.551 139.828 180.114 140.856C178.7 141.883 176.108 144.426 172.385 148.485L170.24 145.864C174.671 140.702 179.077 136.823 183.459 134.229C187.866 131.66 191.236 130.35 193.592 130.35C194.416 130.35 195.053 130.581 195.548 130.992C196.019 131.429 196.278 131.968 196.278 132.61C196.278 133.278 195.972 134.999 195.382 137.8L192.414 151.285C197.055 143.296 202.31 136.489 208.154 130.812C210.958 128.09 213.291 126.754 215.176 126.754C216.566 126.754 217.72 127.242 218.639 128.218C219.558 129.195 220.029 130.325 220.029 131.634C220.029 132.996 219.582 134.152 218.663 135.102C217.768 136.053 215.529 137.182 211.947 138.493C208.531 139.751 205.774 141.241 203.63 142.988C201.485 144.76 199.129 147.431 196.584 151.053C194.04 154.675 192.249 157.809 191.236 160.506C190.223 163.177 188.667 169.419 186.617 179.206L183.507 193.796ZM260.204 129.22L264.752 128.167L259.569 147.226C257.519 154.778 255.563 163.511 253.701 173.401C252.688 178.769 252.193 182.237 252.193 183.778C252.193 185.345 252.758 186.115 253.913 186.115C254.644 186.115 255.822 185.602 257.448 184.548C260.299 182.673 263.032 180.387 265.648 177.613L267.863 180.541C262.608 185.756 259.262 188.941 257.778 190.045C254.832 192.229 252.028 193.873 249.365 194.926C247.622 195.619 245.902 195.979 244.252 195.979C243.05 195.979 242.155 195.671 241.566 195.08C240.953 194.463 240.671 193.59 240.671 192.434C240.671 191.689 240.859 190.662 241.212 189.352L243.97 179.129C240.011 184.292 235.299 188.735 229.832 192.434C226.462 194.746 223.375 195.902 220.572 195.902C217.909 195.902 215.859 194.874 214.422 192.82C212.489 190.045 211.523 186.449 211.523 181.98C211.523 176.663 212.843 170.755 215.434 164.231C218.027 157.706 221.513 151.773 225.897 146.455C230.256 141.138 234.874 137.234 239.705 134.717C243.428 132.816 248.211 131.866 254.055 131.866C255.539 131.866 257.024 131.968 258.555 132.174L260.204 129.22ZM251.651 140.753C249.153 140.188 247.056 139.905 245.359 139.905C241.212 139.905 237.607 141.164 234.521 143.63C231.434 146.122 228.583 150.591 225.92 157.038C223.281 163.486 221.961 169.907 221.961 176.329C221.961 179.745 222.48 182.211 223.541 183.701C224.601 185.216 225.991 185.961 227.688 185.961C230.868 185.961 234.261 184.112 237.914 180.361C241.542 176.637 244.205 171.243 245.902 164.231L251.651 140.753Z" fill="#EE4137" stroke="#EE4137" stroke-width="1.88976" stroke-miterlimit="22.9256" stroke-linejoin="round"/>
<path d="M123.6 263.893L119.545 263.893C120.128 258.681 120.419 254.74 120.419 252.045C120.419 248.231 119.333 245.206 117.186 242.994C115.038 240.782 112.124 239.689 108.439 239.689C102.768 239.689 97.7852 241.672 93.5446 245.612C89.3044 249.554 87.1841 253.977 87.1841 258.91C87.1841 261.529 87.7667 263.919 88.933 266.055C90.0724 268.19 92.6699 271.165 96.6453 275.004C103.934 281.843 108.731 287.208 111.01 291.073C113.29 294.962 114.43 298.725 114.43 302.412C114.43 307.828 112.707 313.04 109.261 318.049C105.816 323.057 100.754 327.202 94.0488 330.456C87.3435 333.711 80.2659 335.338 72.8192 335.338C65.4513 335.338 59.2489 333.482 54.2137 329.82C49.1777 326.134 46.6333 322.269 46.6333 318.201C46.6333 316.015 47.2955 314.209 48.6212 312.76C49.9461 311.311 51.4569 310.599 53.1536 310.599C54.929 310.599 56.3871 311.26 57.5 312.608C58.2418 313.396 58.958 315.201 59.6995 317.972C60.5215 321.353 61.529 323.794 62.721 325.32C63.9135 326.82 65.5571 328.066 67.6504 329.032C69.7446 329.998 72.0242 330.482 74.5155 330.482C81.91 330.482 88.4027 328.091 93.9425 323.286C99.4549 318.506 102.238 313.192 102.238 307.396C102.238 305.413 101.893 303.429 101.177 301.471C100.488 299.514 99.2163 297.277 97.3346 294.81C96.0628 293.107 93.1736 290.132 88.721 285.86C84.3219 281.691 81.5651 278.843 80.4253 277.292C78.8087 275.055 77.6162 272.818 76.8478 270.555C76.0789 268.292 75.6809 266.055 75.6809 263.817C75.6809 259.292 77.2714 254.765 80.4253 250.189C83.5792 245.612 87.6874 241.977 92.723 239.282C97.7852 236.562 103.51 235.214 109.924 235.214C113.131 235.214 117.106 235.697 121.798 236.637C124.501 237.121 126.833 237.502 128.795 237.757C127.654 240.985 126.781 244.011 126.144 246.884C125.534 249.731 124.687 255.401 123.6 263.893ZM168.868 261.656C173.93 261.656 178.145 263.588 181.511 267.478C184.876 271.343 186.573 276.733 186.573 283.623C186.573 294.657 182.544 304.548 174.46 313.32C166.377 322.091 157.842 326.464 148.831 326.464C143.292 326.464 138.84 324.735 135.447 321.252C132.054 317.769 130.359 313.04 130.359 307.014C130.359 296.59 133.459 286.954 139.661 278.131C147.48 267.148 157.207 261.656 168.868 261.656ZM162.269 267.249C157.869 267.249 153.602 270.275 149.494 276.3C145.386 282.326 143.319 290.666 143.319 301.293C143.319 307.752 144.591 312.836 147.135 316.549C148.991 319.294 151.482 320.642 154.583 320.642C158.929 320.642 162.878 318.074 166.456 312.913C171.015 306.2 173.294 297.887 173.294 287.946C173.294 280.496 172.235 275.182 170.14 272.004C168.046 268.825 165.423 267.249 162.269 267.249ZM226.248 306.353L228.872 309.022C224.843 313.396 220.073 317.387 214.56 320.998C209.048 324.583 204.489 326.388 200.911 326.388C199.321 326.388 197.995 325.803 196.962 324.633C195.928 323.464 195.399 321.862 195.399 319.828C195.399 315.862 197.015 307.624 200.222 295.115L208.597 262.393C211.672 250.596 214.215 242.663 216.31 238.646C219.516 232.544 224.048 227.79 229.932 224.408C235.789 221.027 241.992 219.349 248.511 219.349C250.738 219.349 252.487 219.857 253.759 220.874C255.031 221.891 255.667 223.137 255.667 224.561C255.667 226.163 255.031 227.459 253.813 228.476C252.567 229.493 250.738 230.001 248.353 230.001C246.815 230.001 244.615 229.748 241.753 229.264C239.288 228.858 236.983 228.654 234.862 228.654C232.742 228.654 231.125 229.086 230.039 229.925C228.528 231.121 227.176 233.637 225.957 237.451C224.738 241.265 222.777 248.816 220.02 260.105L212.334 291.302C208.517 306.938 206.583 315.124 206.583 315.811C206.583 317.413 207.193 318.201 208.385 318.201C209.524 318.201 211.168 317.54 213.341 316.269C217.635 313.675 221.928 310.37 226.248 306.353Z" fill="#EE4137" stroke="#EE4137" stroke-width="1.88976" stroke-miterlimit="22.9256" stroke-linejoin="round"/>
<path d="M24.8743 256.219C27.9899 254.722 30.4335 252.899 32.1923 250.751C33.9515 248.603 34.824 246.363 34.824 244.059C34.824 241.923 34.2869 240.27 33.2263 239.098C32.1657 237.926 30.6752 237.341 28.7282 237.341C26.6601 237.341 25.049 237.979 23.9078 239.267C22.7662 240.556 22.2021 242.379 22.2021 244.736C22.2021 246.35 22.4303 248.108 22.8738 250.022C23.3172 251.949 23.9884 254.006 24.8743 256.219ZM32.1121 281.635C29.037 278.093 26.4319 274.682 24.2702 271.388C22.1085 268.094 20.3627 264.891 19.0604 261.792C15.7305 263.368 13.2325 265.19 11.5673 267.274C9.90256 269.344 9.07019 271.648 9.07019 274.187C9.07019 277.729 10.2249 280.71 12.5482 283.132C14.8711 285.567 17.704 286.778 21.0609 286.778C22.7932 286.778 24.6461 286.322 26.6066 285.411C28.567 284.486 30.4069 283.236 32.1121 281.635ZM33.7233 283.419C31.0781 285.945 28.2177 287.859 25.1431 289.186C22.0814 290.501 18.9528 291.166 15.7435 291.166C11.3125 291.166 7.7539 289.981 5.05513 287.598C2.35636 285.215 1 282.09 1 278.198C1 274.512 2.38338 271.154 5.13617 268.146C7.8885 265.138 12.1984 262.248 18.0668 259.501C17.1534 257.17 16.4822 255.087 16.0658 253.29C15.6494 251.48 15.4347 249.774 15.4347 248.173C15.4347 244.411 16.697 241.285 19.208 238.786C21.7326 236.299 24.9013 235.049 28.7282 235.049C31.9505 235.049 34.4485 235.817 36.2208 237.341C37.9932 238.864 38.8795 241.025 38.8795 243.824C38.8795 246.702 37.8721 249.267 35.8715 251.532C33.8574 253.797 30.541 256.076 25.8948 258.355C27.3183 261.102 28.97 263.915 30.8764 266.792C32.7698 269.669 34.878 272.547 37.1878 275.45C39.6313 272.351 41.5112 269.448 42.8271 266.74C44.1564 264.032 44.8276 261.74 44.8276 259.891C44.8276 258.798 44.4517 257.977 43.713 257.443C42.9882 256.91 41.7795 256.584 40.1013 256.454L40.1013 254.813L56.4294 254.813L56.4294 256.454C53.7302 256.506 51.1791 258.498 48.7887 262.443L48.601 262.743C48.3322 263.211 47.8892 263.992 47.2581 265.112C44.4247 270.151 41.6323 274.291 38.8795 277.547C41.2425 280.086 43.5658 282.052 45.8617 283.431C48.1575 284.825 50.2121 285.515 52.0249 285.515C53.4619 285.515 54.6972 285.241 55.7443 284.682C56.7783 284.122 57.9735 283.054 59.3429 281.478L60.3234 282.702C58.0941 285.749 55.9864 287.924 53.9854 289.225C51.9984 290.514 49.8092 291.166 47.4193 291.166C45.4187 291.166 43.2835 290.514 41.0012 289.225C38.7184 287.924 36.2879 285.983 33.7233 283.419Z" fill="#EE4137" stroke="#EE4137" stroke-width="1.88976" stroke-miterlimit="22.9256" stroke-linejoin="round"/>
<path d="M394.609 609.124L391.684 609.124C391.872 606.431 391.966 604.269 391.966 602.639C391.966 597.766 390.879 594.364 388.722 592.45C386.585 590.518 383.867 589.562 380.586 589.562C376.219 589.562 371.663 591.227 366.958 594.576C362.253 597.926 358.203 603.135 354.811 610.223C351.418 617.311 349.73 624.594 349.73 632.072C349.73 639.319 351.305 644.866 354.454 648.729C357.585 652.591 361.541 654.523 366.283 654.523C372.713 654.523 378.618 650.89 383.998 643.607C384.542 642.881 385.104 642.509 385.704 642.509C386.173 642.509 386.585 642.65 386.923 642.952C387.242 643.236 387.41 643.572 387.41 643.962C387.41 644.901 386.191 646.726 383.755 649.455C381.318 652.184 378.243 654.452 374.532 656.259C370.839 658.085 367.183 658.988 363.602 658.988C359.272 658.988 355.26 657.925 351.549 655.799C347.837 653.672 344.968 650.625 342.907 646.691C340.863 642.739 339.832 638.061 339.832 632.621C339.832 625.037 341.932 617.506 346.131 609.993C350.33 602.479 355.579 596.685 361.878 592.609C368.176 588.516 374.325 586.478 380.343 586.478C382.498 586.478 384.654 586.709 386.773 587.152C387.691 587.365 391.459 588.552 398.095 590.731C396.033 596.667 394.871 602.798 394.609 609.124ZM424.359 605.085C427.958 605.085 430.939 606.431 433.32 609.142C435.701 611.836 436.9 615.592 436.9 620.412C436.9 628.085 434.032 634.996 428.315 641.109C422.597 647.222 416.561 650.27 410.168 650.27C406.251 650.27 403.082 649.065 400.682 646.638C398.283 644.21 397.083 640.896 397.083 636.714C397.083 629.45 399.276 622.734 403.682 616.567C409.212 608.912 416.111 605.085 424.359 605.085ZM419.672 609.018C416.561 609.018 413.561 611.127 410.655 615.326C407.75 619.526 406.306 625.338 406.306 632.727C406.306 637.228 407.206 640.772 408.987 643.377C410.299 645.273 412.061 646.23 414.255 646.23C417.31 646.23 420.104 644.422 422.634 640.825C425.84 636.165 427.452 630.371 427.452 623.442C427.452 618.25 426.721 614.547 425.24 612.332C423.759 610.117 421.903 609.018 419.672 609.018ZM443.63 617.417L441.718 615.61C446.442 611.375 450.21 608.558 453.022 607.175C455.815 605.775 458.215 605.085 460.202 605.085C460.989 605.085 461.589 605.244 462.039 605.545C462.47 605.846 462.695 606.201 462.695 606.626C462.695 606.927 462.601 607.476 462.433 608.256L459.94 618.693C463.651 614.777 468.319 611.127 473.943 607.724C476.923 605.97 479.379 605.085 481.31 605.085C482.735 605.085 483.86 605.51 484.647 606.36C485.453 607.211 485.866 608.451 485.866 610.046C485.866 611.127 485.697 612.332 485.36 613.678C484.778 615.929 483.26 620.837 480.786 628.386C478.461 635.438 477.298 640.134 477.298 642.456C477.298 643.182 477.411 643.732 477.617 644.086C477.842 644.458 478.161 644.635 478.555 644.635C479.623 644.635 481.292 643.66 483.56 641.711C485.172 640.312 486.784 639.018 488.397 637.83L489.634 639.744C486.278 643.253 482.81 646.07 479.21 648.214C476.905 649.579 475.031 650.27 473.531 650.27C472.143 650.27 471.075 649.791 470.306 648.835C469.538 647.878 469.162 646.318 469.162 644.157C469.162 641.073 471.206 633.419 475.274 621.156C476.53 616.797 477.149 614.263 477.149 613.537C477.149 612.509 476.474 611.995 475.124 611.995C473.662 611.995 471.768 612.721 469.462 614.175C466.013 616.319 463.145 618.835 460.839 621.741C459.377 623.619 458.14 626.596 457.165 630.672L452.704 648.782L444.53 648.782C446.067 643.59 447.398 638.628 448.542 633.897L453.416 614.175C453.603 613.395 453.697 612.846 453.697 612.509C453.697 611.605 453.322 611.144 452.591 611.144C451.991 611.144 451.147 611.499 450.041 612.226C447.754 613.643 445.617 615.38 443.63 617.417ZM495.651 608.487L508.773 608.487C510.929 599.839 513.404 593.407 516.178 589.172C518.971 584.954 522.589 581.623 527.051 579.178C531.512 576.75 535.731 575.527 539.686 575.527C541.916 575.527 543.604 575.953 544.729 576.786C545.872 577.618 546.434 578.593 546.434 579.745C546.434 580.79 546.059 581.658 545.291 582.35C544.522 583.041 543.51 583.395 542.273 583.395C540.979 583.395 538.58 583.041 535.018 582.314C533.274 581.977 531.887 581.8 530.912 581.8C528.494 581.8 526.32 583.2 524.371 586.018C522.439 588.835 520.884 592.645 519.721 597.447L516.834 608.487L531.456 608.487L530.575 612.208L515.878 612.208L507.236 645.362C504.574 655.427 500.3 663.046 494.414 668.22C488.546 673.413 482.173 675.999 475.292 675.999C472.987 675.999 471.243 675.574 470.044 674.742C468.863 673.891 468.263 672.863 468.263 671.623C468.263 670.56 468.675 669.709 469.5 669.088C470.325 668.451 471.506 668.132 473.043 668.132C473.812 668.132 474.937 668.22 476.436 668.398C479.004 668.717 481.46 668.876 483.803 668.876C487.421 668.876 490.064 668.061 491.695 666.449C493.345 664.836 494.995 660.902 496.644 654.612L507.78 612.208L494.676 612.208L495.651 608.487ZM558.563 635.704L560.363 637.937C551.402 646.017 543.735 650.057 537.324 650.057C534.737 650.057 532.75 649.225 531.381 647.577C530.013 645.911 529.319 643.253 529.319 639.603C529.319 632.213 531.7 624.877 536.461 617.559C541.804 609.248 548.178 605.085 555.62 605.085C558.207 605.085 560.194 605.704 561.563 606.927C562.931 608.15 563.624 609.833 563.624 611.978C563.624 614.228 562.8 616.425 561.15 618.605C559.501 620.784 556.557 623.052 552.321 625.391C550.183 626.525 545.647 628.581 538.692 631.558C538.374 633.419 538.205 635.191 538.205 636.892C538.205 639.337 538.617 641.056 539.442 642.013C540.267 642.987 541.467 643.466 543.041 643.466C544.54 643.466 546.172 643.058 547.972 642.261C550.39 641.198 553.914 639 558.563 635.704ZM539.348 628.262C545.235 625.781 549.658 623.105 552.62 620.253C554.626 618.25 555.639 616.265 555.639 614.299C555.639 612.828 555.226 611.64 554.401 610.755C553.577 609.887 552.508 609.443 551.196 609.443C549.846 609.443 548.534 609.922 547.259 610.896C545.535 612.172 544.091 614.104 542.929 616.673C541.242 620.465 540.042 624.328 539.348 628.262ZM598.249 637.618L599.486 640.595C590.713 647.045 583.308 650.27 577.271 650.27C574.066 650.27 571.742 649.189 570.279 647.045C568.836 644.901 568.105 642.172 568.105 638.876C568.105 633.401 569.642 627.766 572.735 621.989C575.81 616.195 579.559 611.765 583.946 608.664C587.395 606.271 591.294 605.085 595.624 605.085C598.324 605.085 600.386 605.563 601.773 606.537C603.179 607.512 603.873 608.681 603.873 610.063C603.873 611.144 603.497 612.013 602.767 612.686C602.035 613.36 601.004 613.696 599.692 613.696C598.418 613.696 596.768 613.147 594.743 612.048C592.662 610.879 590.919 610.294 589.513 610.294C587.732 610.294 585.932 611.056 584.151 612.598C582.389 614.139 580.684 617.134 579.071 621.564C577.459 625.994 576.653 630.459 576.653 634.925C576.653 638.203 577.328 640.754 578.696 642.562C579.69 643.944 581.077 644.635 582.877 644.635C587.17 644.635 592.307 642.296 598.249 637.618ZM636.472 637.618L637.71 640.595C628.936 647.045 621.531 650.27 615.495 650.27C612.29 650.27 609.965 649.189 608.503 647.045C607.059 644.901 606.328 642.172 606.328 638.876C606.328 633.401 607.865 627.766 610.958 621.989C614.033 616.195 617.782 611.765 622.169 608.664C625.618 606.271 629.517 605.085 633.847 605.085C636.547 605.085 638.609 605.563 639.996 606.537C641.403 607.512 642.096 608.681 642.096 610.063C642.096 611.144 641.721 612.013 640.99 612.686C640.259 613.36 639.228 613.696 637.915 613.696C636.641 613.696 634.991 613.147 632.966 612.048C630.886 610.879 629.142 610.294 627.736 610.294C625.955 610.294 624.156 611.056 622.375 612.598C620.613 614.139 618.907 617.134 617.295 621.564C615.682 625.994 614.877 630.459 614.877 634.925C614.877 638.203 615.552 640.754 616.92 642.562C617.914 643.944 619.301 644.635 621.1 644.635C625.393 644.635 630.53 642.296 636.472 637.618ZM617.014 647.825L620.613 647.825L617.257 653.708C619.301 653.973 620.8 654.629 621.756 655.657C622.713 656.667 623.2 657.872 623.2 659.272C623.2 661.682 621.644 664.145 618.514 666.626C615.401 669.106 610.996 670.772 605.316 671.64L606.441 668.557C609.797 667.902 612.496 666.732 614.539 665.066C615.963 663.915 616.676 662.603 616.676 661.15C616.676 660.034 616.207 659.113 615.289 658.35C614.37 657.606 613.264 657.234 611.934 657.234C611.708 657.234 611.427 657.252 611.052 657.287L617.014 647.825ZM671.715 605.085C675.314 605.085 678.295 606.431 680.675 609.142C683.056 611.836 684.256 615.592 684.256 620.412C684.256 628.085 681.387 634.996 675.67 641.109C669.953 647.222 663.916 650.27 657.524 650.27C653.606 650.27 650.438 649.065 648.038 646.638C645.639 644.21 644.439 640.896 644.439 636.714C644.439 629.45 646.633 622.734 651.038 616.567C656.568 608.912 663.466 605.085 671.715 605.085ZM667.028 609.018C663.916 609.018 660.917 611.127 658.011 615.326C655.106 619.526 653.662 625.338 653.662 632.727C653.662 637.228 654.562 640.772 656.343 643.377C657.655 645.273 659.417 646.23 661.611 646.23C664.666 646.23 667.459 644.422 669.99 640.825C673.196 636.165 674.808 630.371 674.808 623.442C674.808 618.25 674.077 614.547 672.596 612.332C671.115 610.117 669.259 609.018 667.028 609.018ZM687.405 587.117L690.442 587.117C689.411 590.306 687.911 592.751 685.905 594.452C683.919 596.154 681.8 597.004 679.57 597.004C678.426 597.004 677.395 596.898 676.495 596.685C676.008 596.579 674.789 596.065 672.802 595.143C670.759 594.222 669.447 593.672 668.902 593.495C668.097 593.283 667.291 593.177 666.485 593.177C665.491 593.177 664.647 593.442 663.954 593.973C663.26 594.506 662.529 595.515 661.761 597.004L658.724 597.004C659.605 593.566 660.973 591.068 662.829 589.491C664.685 587.914 666.709 587.117 668.865 587.117C670.496 587.117 672.933 587.736 676.214 588.977C679.288 590.146 681.463 590.731 682.719 590.731C683.899 590.731 684.931 590.377 685.831 589.686C686.73 588.995 687.255 588.144 687.405 587.117ZM718.205 635.704L720.005 637.937C711.044 646.017 703.377 650.057 696.966 650.057C694.379 650.057 692.392 649.225 691.023 647.577C689.655 645.911 688.962 643.253 688.962 639.603C688.962 632.213 691.342 624.877 696.103 617.559C701.447 609.248 707.82 605.085 715.262 605.085C717.849 605.085 719.836 605.704 721.205 606.927C722.574 608.15 723.267 609.833 723.267 611.978C723.267 614.228 722.442 616.425 720.792 618.605C719.143 620.784 716.2 623.052 711.963 625.391C709.826 626.525 705.289 628.581 698.335 631.558C698.016 633.419 697.847 635.191 697.847 636.892C697.847 639.337 698.26 641.056 699.084 642.013C699.909 642.987 701.109 643.466 702.684 643.466C704.183 643.466 705.814 643.058 707.614 642.261C710.032 641.198 713.556 639 718.205 635.704ZM698.99 628.262C704.877 625.781 709.301 623.105 712.263 620.253C714.268 618.25 715.281 616.265 715.281 614.299C715.281 612.828 714.869 611.64 714.044 610.755C713.219 609.887 712.15 609.443 710.838 609.443C709.488 609.443 708.177 609.922 706.901 610.896C705.177 612.172 703.733 614.104 702.571 616.673C700.884 620.465 699.684 624.328 698.99 628.262ZM751.704 605.085C754.966 605.085 757.497 605.687 759.279 606.892C761.059 608.097 761.94 609.479 761.94 611.038C761.94 611.978 761.565 612.81 760.815 613.501C760.065 614.192 759.166 614.547 758.097 614.547C757.404 614.547 756.804 614.405 756.279 614.104C755.773 613.803 755.042 613.058 754.085 611.888C752.286 609.62 750.524 608.487 748.762 608.487C747.262 608.487 745.931 609.036 744.769 610.117C743.625 611.197 743.044 612.562 743.044 614.175C743.044 615.592 743.4 616.975 744.131 618.303C744.862 619.632 746.719 621.776 749.68 624.736C753.729 628.811 755.754 632.674 755.754 636.343C755.754 639.993 754.104 643.2 750.805 645.946C747.506 648.693 743.269 650.057 738.076 650.057C733.708 650.057 730.465 649.225 728.347 647.559C726.229 645.876 725.16 643.82 725.16 641.375C725.16 640.17 725.554 639.177 726.36 638.38C727.166 637.582 728.141 637.193 729.322 637.193C730.334 637.193 731.215 637.512 731.946 638.15C732.677 638.788 733.033 639.532 733.033 640.4C733.033 640.754 733.015 641.198 732.958 641.747C732.94 642.19 732.921 642.58 732.921 642.881C732.921 644.033 733.427 644.989 734.458 645.787C735.452 646.584 736.82 646.974 738.545 646.974C740.514 646.974 742.257 646.655 743.775 646.017C745.275 645.38 746.437 644.405 747.281 643.111C748.124 641.818 748.556 640.524 748.556 639.248C748.556 638.008 748.162 636.768 747.374 635.509C746.568 634.269 744.806 632.213 742.032 629.343C738.207 625.338 736.296 621.475 736.296 617.79C736.296 614.405 737.739 611.428 740.645 608.894C743.551 606.36 747.225 605.085 751.704 605.085Z" fill="#33613D" stroke="#33613D" stroke-width="1.88976" stroke-miterlimit="22.9256"/>
<path d="M530.759 384.057L530.854 384.006" stroke="#373435" stroke-width="5.33329" stroke-miterlimit="22.9256"/>
<path fill-rule="evenodd" clip-rule="evenodd" d="M472.339 541.814C477.078 541.814 480.921 546.297 480.921 551.825C480.921 557.354 477.078 561.836 472.339 561.836C467.6 561.836 463.758 557.354 463.758 551.825C463.758 546.297 467.6 541.814 472.339 541.814Z" fill="#EE4137" stroke="#EE4137" stroke-width="5.33329" stroke-miterlimit="22.9256"/>
<path fill-rule="evenodd" clip-rule="evenodd" d="M538.842 509.276C543.581 509.276 547.423 513.759 547.423 519.287C547.423 524.816 543.581 529.298 538.842 529.298C534.102 529.298 530.261 524.816 530.261 519.287C530.261 513.759 534.102 509.276 538.842 509.276Z" fill="#EE4137" stroke="#EE4137" stroke-width="5.33329" stroke-miterlimit="22.9256"/>
<path fill-rule="evenodd" clip-rule="evenodd" d="M617.144 501.411C621.883 501.411 625.725 505.893 625.725 511.422C625.725 516.951 621.883 521.433 617.144 521.433C612.404 521.433 608.563 516.951 608.563 511.422C608.563 505.893 612.404 501.411 617.144 501.411Z" fill="#EE4137" stroke="#EE4137" stroke-width="5.33329" stroke-miterlimit="22.9256"/>
<path fill-rule="evenodd" clip-rule="evenodd" d="M655.043 437.769C659.783 437.769 663.625 442.251 663.625 447.779C663.625 453.308 659.783 457.791 655.043 457.791C650.305 457.791 646.462 453.308 646.462 447.779C646.462 442.251 650.305 437.769 655.043 437.769Z" fill="#EE4137" stroke="#EE4137" stroke-width="5.33329" stroke-miterlimit="22.9256"/>
<path fill-rule="evenodd" clip-rule="evenodd" d="M714.395 399.153C719.135 399.153 722.976 403.636 722.976 409.164C722.976 414.693 719.135 419.175 714.395 419.175C709.656 419.175 705.814 414.693 705.814 409.164C705.814 403.636 709.656 399.153 714.395 399.153Z" fill="#EE4137" stroke="#EE4137" stroke-width="5.33329" stroke-miterlimit="22.9256"/>
<path fill-rule="evenodd" clip-rule="evenodd" d="M708.674 341.232C713.413 341.232 717.256 345.715 717.256 351.243C717.256 356.772 713.413 361.254 708.674 361.254C703.935 361.254 700.093 356.772 700.093 351.243C700.093 345.715 703.935 341.232 708.674 341.232Z" fill="#EE4137" stroke="#EE4137" stroke-width="5.33329" stroke-miterlimit="22.9256"/>
<path fill-rule="evenodd" clip-rule="evenodd" d="M742.998 272.585C747.738 272.585 751.579 277.067 751.579 282.596C751.579 288.125 747.738 292.607 742.998 292.607C738.259 292.607 734.417 288.125 734.417 282.596C734.417 277.067 738.259 272.585 742.998 272.585Z" fill="#EE4137" stroke="#EE4137" stroke-width="5.33329" stroke-miterlimit="22.9256"/>
<path fill-rule="evenodd" clip-rule="evenodd" d="M707.244 208.229C711.983 208.229 715.825 212.71 715.825 218.239C715.825 223.768 711.983 228.25 707.244 228.25C702.505 228.25 698.663 223.768 698.663 218.239C698.663 212.71 702.505 208.229 707.244 208.229Z" fill="#EE4137" stroke="#EE4137" stroke-width="5.33329" stroke-miterlimit="22.9256"/>
<path fill-rule="evenodd" clip-rule="evenodd" d="M703.669 139.58C708.408 139.58 712.251 144.062 712.251 149.591C712.251 155.12 708.408 159.602 703.669 159.602C698.93 159.602 695.088 155.12 695.088 149.591C695.088 144.062 698.93 139.58 703.669 139.58Z" fill="#EE4137" stroke="#EE4137" stroke-width="5.33329" stroke-miterlimit="22.9256"/>
<path fill-rule="evenodd" clip-rule="evenodd" d="M647.178 106.687C651.917 106.687 655.759 111.168 655.759 116.697C655.759 122.226 651.917 126.708 647.178 126.708C642.438 126.708 638.597 122.226 638.597 116.697C638.597 111.168 642.438 106.687 647.178 106.687Z" fill="#EE4137" stroke="#EE4137" stroke-width="5.33329" stroke-miterlimit="22.9256"/>
<path fill-rule="evenodd" clip-rule="evenodd" d="M612.854 45.9043C617.593 45.9043 621.435 50.3862 621.435 55.9152C621.435 61.4437 617.593 65.926 612.854 65.926C608.115 65.926 604.272 61.4437 604.272 55.9152C604.272 50.3862 608.115 45.9043 612.854 45.9043Z" fill="#EE4137" stroke="#EE4137" stroke-width="5.33329" stroke-miterlimit="22.9256"/>
<path fill-rule="evenodd" clip-rule="evenodd" d="M542.775 40.8994C547.515 40.8994 551.357 45.3817 551.357 50.9107C551.357 56.4393 547.515 60.9216 542.775 60.9216C538.037 60.9216 534.195 56.4393 534.195 50.9107C534.195 45.3817 538.037 40.8994 542.775 40.8994Z" fill="#EE4137" stroke="#EE4137" stroke-width="5.33329" stroke-miterlimit="22.9256"/>
<path fill-rule="evenodd" clip-rule="evenodd" d="M481.279 3C486.018 3 489.861 7.48188 489.861 13.0109C489.861 18.5399 486.018 23.0217 481.279 23.0217C476.54 23.0217 472.698 18.5399 472.698 13.0109C472.698 7.48188 476.54 3 481.279 3Z" fill="#EE4137" stroke="#EE4137" stroke-width="5.33329" stroke-miterlimit="22.9256"/>
<path d="M442.603 459.464C458.832 459.712 475.061 459.959 489.333 458.771C503.605 457.584 515.919 454.962 528.495 450.836C541.071 446.709 553.908 441.079 567.361 432.267C580.813 423.454 594.883 411.461 606.858 398.068C618.833 384.675 628.715 369.882 635.265 356.646C641.815 343.409 645.033 331.73 647.119 321.004C649.204 310.277 650.158 300.504 650.168 289.261C650.178 278.018 649.245 265.305 647.577 253.983C645.908 242.661 643.504 232.73 639.859 223.116C636.214 213.503 631.327 204.207 625.368 195.149C619.409 186.091 612.378 177.272 605.763 169.763C599.148 162.255 592.951 156.057 585.324 149.562C577.696 143.067 568.639 136.273 558.925 130.493C549.212 124.713 538.844 119.946 527.343 115.834C515.842 111.722 503.208 108.266 490.098 106.18C476.989 104.095 463.402 103.38 451.306 103.856C439.209 104.333 428.602 106.002 419.067 108.087C409.533 110.173 401.071 112.676 391.894 116.549C382.717 120.422 372.826 125.666 363.857 131.536C354.889 137.406 346.844 143.901 339.336 150.635C331.827 157.369 324.855 164.34 318.688 171.819C312.52 179.298 307.157 187.283 302.747 194.911C298.338 202.538 294.881 209.808 291.783 218.091C288.684 226.374 285.943 235.67 284.155 245.53C282.368 255.39 281.533 265.814 281.712 276.238C281.891 286.662 283.083 297.086 284.669 305.681C286.255 314.277 288.236 321.044 290.217 327.811" stroke="#EE4137" stroke-width="5.33329" stroke-miterlimit="22.9256" stroke-linecap="round"/>
<path fill-rule="evenodd" clip-rule="evenodd" d="M419.783 33.749C424.522 33.749 428.364 38.2309 428.364 43.7599C428.364 49.2884 424.522 53.7708 419.783 53.7708C415.044 53.7708 411.202 49.2884 411.202 43.7599C411.202 38.2309 415.044 33.749 419.783 33.749Z" fill="#EE4137" stroke="#EE4137" stroke-width="5.33329" stroke-miterlimit="22.9256"/>
<path fill-rule="evenodd" clip-rule="evenodd" d="M292.612 325.368C296.517 325.368 299.683 328.724 299.683 332.863C299.683 337.003 296.517 340.359 292.612 340.359C288.707 340.359 285.542 337.003 285.542 332.863C285.542 328.724 288.707 325.368 292.612 325.368Z" fill="#EE4137" stroke="#EE4137" stroke-width="5.33329" stroke-miterlimit="22.9256"/>
<path d="M421.44 51.3906L429.995 105.782" stroke="#EE4137" stroke-width="5.33329" stroke-miterlimit="22.9256"/>
<path d="M480.665 21.623L477.924 104.699" stroke="#EE4137" stroke-width="5.33329" stroke-miterlimit="22.9256"/>
<path d="M541.269 57.4609L526.571 115.287" stroke="#EE4137" stroke-width="5.33329" stroke-miterlimit="22.9256"/>
<path d="M609.608 63.918L568.019 135.896" stroke="#EE4137" stroke-width="5.33329" stroke-miterlimit="22.9256"/>
<path d="M645.471 120.187L600.366 165.21" stroke="#EE4137" stroke-width="5.33329" stroke-miterlimit="22.9256"/>
<path d="M698.508 154.783L626.891 199.038" stroke="#EE4137" stroke-width="5.33329" stroke-miterlimit="22.9256"/>
<path d="M699.08 221.33L645.737 243.53" stroke="#EE4137" stroke-width="5.33329" stroke-miterlimit="22.9256"/>
<path d="M734.417 282.596L650.067 282.514" stroke="#EE4137" stroke-width="5.33329" stroke-miterlimit="22.9256"/>
<path d="M700.489 348.233L645.776 325.507" stroke="#EE4137" stroke-width="5.33329" stroke-miterlimit="22.9256"/>
<path d="M706.362 405.636L629.695 366.081" stroke="#EE4137" stroke-width="5.33329" stroke-miterlimit="22.9256"/>
<path d="M648.059 441.962L601.561 403.763" stroke="#EE4137" stroke-width="5.33329" stroke-miterlimit="22.9256"/>
<path d="M612.469 503.025L568.851 431.278" stroke="#EE4137" stroke-width="5.33329" stroke-miterlimit="22.9256"/>
<path d="M536.438 509.675L524.794 452.008" stroke="#EE4137" stroke-width="5.33329" stroke-miterlimit="22.9256"/>
<path d="M473.997 543.471L473.995 459.545" stroke="#EE4137" stroke-width="5.33329" stroke-miterlimit="22.9256"/>
<path d="M65.9978 189.506L65.0322 193.796C61.8747 194.54 59.2592 194.926 57.2326 194.926C55.3009 194.926 52.0957 194.694 47.6426 194.258C44.2731 193.95 41.2804 193.796 38.5947 193.796C33.9998 193.796 29.2635 194.258 24.3855 195.157L25.352 191.021C29.9937 190.508 33.3866 189.455 35.484 187.862C37.0155 186.706 38.3115 184.728 39.3955 181.954C40.4791 179.154 42.9298 169.445 46.7468 152.774L55.5832 112.909L56.0545 111.008C53.3449 110.906 51.2948 110.854 49.9281 110.854C41.3983 110.854 34.6593 111.881 29.6637 113.885C24.6686 115.889 20.9219 118.791 18.4009 122.618C15.9029 126.42 14.6542 130.53 14.6542 134.948C14.6542 136.515 14.8896 137.927 15.4082 139.237C15.7616 140.136 16.7749 141.601 18.4478 143.604C20.0031 145.454 20.7805 147.175 20.7805 148.716C20.7805 150.077 20.3331 151.233 19.4138 152.183C18.495 153.134 17.3876 153.622 16.0916 153.622C14.1594 153.622 12.6041 152.595 11.4021 150.591C9.65909 147.637 8.78711 143.887 8.78711 139.314C8.78711 133.201 10.5072 127.242 13.9947 121.488C17.4583 115.709 22.2413 111.24 28.3209 108.08C34.4 104.92 41.7751 103.353 50.4701 103.353C54.6171 103.353 61.2148 103.996 70.2866 105.306C76.7195 106.205 81.4085 106.642 84.3067 106.642C87.2049 106.642 89.2549 106.128 90.433 105.075C91.6345 104.021 92.2472 102.609 92.2472 100.862C92.2472 100.503 92.177 99.8092 92.0352 98.7559C91.8939 97.8051 91.8232 97.1631 91.8232 96.8804C91.8232 95.5196 92.2472 94.3892 93.0719 93.4902C93.8967 92.5912 94.8866 92.1289 96.0408 92.1289C97.4075 92.1289 98.5622 92.6682 99.4576 93.7729C100.353 94.8772 100.801 96.3673 100.801 98.2165C100.801 102.043 98.9395 105.331 95.2166 108.08C91.4698 110.854 85.2489 112.215 76.5075 112.215C73.373 112.215 70.0273 112.062 66.493 111.779C66.0217 113.577 64.5843 119.691 62.1336 130.119L56.1252 156.165L52.4729 172.039L48.6794 190.174C51.7657 190.585 54.3105 190.79 56.3372 190.79C59.424 190.79 62.6522 190.353 65.9978 189.506ZM116.47 174.916L118.756 178.229C107.469 189.917 97.8082 195.748 89.7497 195.748C86.4743 195.748 84.0001 194.54 82.2562 192.152C80.5365 189.737 79.6645 185.858 79.6645 180.541C79.6645 169.804 82.6573 159.119 88.6418 148.485C95.3574 136.412 103.393 130.35 112.747 130.35C115.999 130.35 118.497 131.25 120.24 133.021C121.96 134.819 122.808 137.26 122.808 140.368C122.808 143.63 121.795 146.841 119.722 150C117.648 153.16 113.949 156.447 108.6 159.864C105.937 161.508 100.212 164.487 91.4698 168.802C91.0687 171.525 90.8571 174.094 90.8571 176.56C90.8571 180.13 91.3752 182.596 92.412 184.009C93.4487 185.422 94.9568 186.115 96.9362 186.115C98.8215 186.115 100.895 185.55 103.157 184.394C106.173 182.828 110.626 179.668 116.47 174.916ZM92.3179 163.999C99.7164 160.377 105.278 156.499 109.024 152.337C111.546 149.409 112.818 146.532 112.818 143.681C112.818 141.523 112.299 139.803 111.262 138.518C110.226 137.234 108.882 136.592 107.21 136.592C105.513 136.592 103.863 137.311 102.238 138.698C100.094 140.573 98.2561 143.373 96.7949 147.149C94.6741 152.646 93.1894 158.271 92.3179 163.999ZM141.117 193.796L130.82 193.796L135.65 173.555C138.006 163.614 140.056 154.187 141.8 145.248C142.225 143.039 142.412 141.678 142.412 141.113C142.412 139.905 141.918 139.314 140.905 139.314C140.221 139.314 139.161 139.828 137.724 140.856C136.31 141.883 133.718 144.426 129.995 148.485L127.851 145.864C132.281 140.702 136.687 136.823 141.069 134.229C145.476 131.66 148.846 130.35 151.202 130.35C152.027 130.35 152.663 130.581 153.157 130.992C153.629 131.429 153.888 131.968 153.888 132.61C153.888 133.278 153.582 134.999 152.993 137.8L150.024 151.285C154.666 143.296 159.92 136.489 165.764 130.812C168.568 128.09 170.901 126.754 172.785 126.754C174.176 126.754 175.33 127.242 176.249 128.218C177.169 129.195 177.639 130.325 177.639 131.634C177.639 132.996 177.192 134.152 176.273 135.102C175.378 136.053 173.139 137.182 169.557 138.493C166.141 139.751 163.384 141.241 161.239 142.988C159.096 144.76 156.739 147.431 154.195 151.053C151.65 154.675 149.859 157.809 148.846 160.506C147.832 163.177 146.277 169.419 144.227 179.206L141.117 193.796ZM183.507 193.796L173.209 193.796L178.04 173.555C180.396 163.614 182.446 154.187 184.19 145.248C184.614 143.039 184.803 141.678 184.803 141.113C184.803 139.905 184.308 139.314 183.295 139.314C182.611 139.314 181.551 139.828 180.114 140.856C178.7 141.883 176.108 144.426 172.385 148.485L170.24 145.864C174.671 140.702 179.077 136.823 183.459 134.229C187.866 131.66 191.236 130.35 193.592 130.35C194.416 130.35 195.053 130.581 195.548 130.992C196.019 131.429 196.278 131.968 196.278 132.61C196.278 133.278 195.972 134.999 195.382 137.8L192.414 151.285C197.055 143.296 202.31 136.489 208.154 130.812C210.958 128.09 213.291 126.754 215.176 126.754C216.566 126.754 217.72 127.242 218.639 128.218C219.558 129.195 220.029 130.325 220.029 131.634C220.029 132.996 219.582 134.152 218.663 135.102C217.768 136.053 215.529 137.182 211.947 138.493C208.531 139.751 205.774 141.241 203.63 142.988C201.485 144.76 199.129 147.431 196.584 151.053C194.04 154.675 192.249 157.809 191.236 160.506C190.223 163.177 188.667 169.419 186.617 179.206L183.507 193.796ZM260.204 129.22L264.752 128.167L259.569 147.226C257.519 154.778 255.563 163.511 253.701 173.401C252.688 178.769 252.193 182.237 252.193 183.778C252.193 185.345 252.758 186.115 253.913 186.115C254.644 186.115 255.822 185.602 257.448 184.548C260.299 182.673 263.032 180.387 265.648 177.613L267.863 180.541C262.608 185.756 259.262 188.941 257.778 190.045C254.832 192.229 252.028 193.873 249.365 194.926C247.622 195.619 245.902 195.979 244.252 195.979C243.05 195.979 242.155 195.671 241.566 195.08C240.953 194.463 240.671 193.59 240.671 192.434C240.671 191.689 240.859 190.662 241.212 189.352L243.97 179.129C240.011 184.292 235.299 188.735 229.832 192.434C226.462 194.746 223.375 195.902 220.572 195.902C217.909 195.902 215.859 194.874 214.422 192.82C212.489 190.045 211.523 186.449 211.523 181.98C211.523 176.663 212.843 170.755 215.434 164.231C218.027 157.706 221.513 151.773 225.897 146.455C230.256 141.138 234.874 137.234 239.705 134.717C243.428 132.816 248.211 131.866 254.055 131.866C255.539 131.866 257.024 131.968 258.555 132.174L260.204 129.22ZM251.651 140.753C249.153 140.188 247.056 139.905 245.359 139.905C241.212 139.905 237.607 141.164 234.521 143.63C231.434 146.122 228.583 150.591 225.92 157.038C223.281 163.486 221.961 169.907 221.961 176.329C221.961 179.745 222.48 182.211 223.541 183.701C224.601 185.216 225.991 185.961 227.688 185.961C230.868 185.961 234.261 184.112 237.914 180.361C241.542 176.637 244.205 171.243 245.902 164.231L251.651 140.753Z" fill="#EE4137" stroke="#EE4137" stroke-width="1.88976" stroke-miterlimit="22.9256" stroke-linejoin="round"/>
<path d="M123.6 263.893L119.545 263.893C120.128 258.681 120.419 254.74 120.419 252.045C120.419 248.231 119.333 245.206 117.186 242.994C115.038 240.782 112.124 239.689 108.439 239.689C102.768 239.689 97.7852 241.672 93.5446 245.612C89.3044 249.554 87.1841 253.977 87.1841 258.91C87.1841 261.529 87.7667 263.919 88.933 266.055C90.0724 268.19 92.6699 271.165 96.6453 275.004C103.934 281.843 108.731 287.208 111.01 291.073C113.29 294.962 114.43 298.725 114.43 302.412C114.43 307.828 112.707 313.04 109.261 318.049C105.816 323.057 100.754 327.202 94.0488 330.456C87.3435 333.711 80.2659 335.338 72.8192 335.338C65.4513 335.338 59.2489 333.482 54.2137 329.82C49.1777 326.134 46.6333 322.269 46.6333 318.201C46.6333 316.015 47.2955 314.209 48.6212 312.76C49.9461 311.311 51.4569 310.599 53.1536 310.599C54.929 310.599 56.3871 311.26 57.5 312.608C58.2418 313.396 58.958 315.201 59.6995 317.972C60.5215 321.353 61.529 323.794 62.721 325.32C63.9135 326.82 65.5571 328.066 67.6504 329.032C69.7446 329.998 72.0242 330.482 74.5155 330.482C81.91 330.482 88.4027 328.091 93.9425 323.286C99.4549 318.506 102.238 313.192 102.238 307.396C102.238 305.413 101.893 303.429 101.177 301.471C100.488 299.514 99.2163 297.277 97.3346 294.81C96.0628 293.107 93.1736 290.132 88.721 285.86C84.3219 281.691 81.5651 278.843 80.4253 277.292C78.8087 275.055 77.6162 272.818 76.8478 270.555C76.0789 268.292 75.6809 266.055 75.6809 263.817C75.6809 259.292 77.2714 254.765 80.4253 250.189C83.5792 245.612 87.6874 241.977 92.723 239.282C97.7852 236.562 103.51 235.214 109.924 235.214C113.131 235.214 117.106 235.697 121.798 236.637C124.501 237.121 126.833 237.502 128.795 237.757C127.654 240.985 126.781 244.011 126.144 246.884C125.534 249.731 124.687 255.401 123.6 263.893ZM168.868 261.656C173.93 261.656 178.145 263.588 181.511 267.478C184.876 271.343 186.573 276.733 186.573 283.623C186.573 294.657 182.544 304.548 174.46 313.32C166.377 322.091 157.842 326.464 148.831 326.464C143.292 326.464 138.84 324.735 135.447 321.252C132.054 317.769 130.359 313.04 130.359 307.014C130.359 296.59 133.459 286.954 139.661 278.131C147.48 267.148 157.207 261.656 168.868 261.656ZM162.269 267.249C157.869 267.249 153.602 270.275 149.494 276.3C145.386 282.326 143.319 290.666 143.319 301.293C143.319 307.752 144.591 312.836 147.135 316.549C148.991 319.294 151.482 320.642 154.583 320.642C158.929 320.642 162.878 318.074 166.456 312.913C171.015 306.2 173.294 297.887 173.294 287.946C173.294 280.496 172.235 275.182 170.14 272.004C168.046 268.825 165.423 267.249 162.269 267.249ZM226.248 306.353L228.872 309.022C224.843 313.396 220.073 317.387 214.56 320.998C209.048 324.583 204.489 326.388 200.911 326.388C199.321 326.388 197.995 325.803 196.962 324.633C195.928 323.464 195.399 321.862 195.399 319.828C195.399 315.862 197.015 307.624 200.222 295.115L208.597 262.393C211.672 250.596 214.215 242.663 216.31 238.646C219.516 232.544 224.048 227.79 229.932 224.408C235.789 221.027 241.992 219.349 248.511 219.349C250.738 219.349 252.487 219.857 253.759 220.874C255.031 221.891 255.667 223.137 255.667 224.561C255.667 226.163 255.031 227.459 253.813 228.476C252.567 229.493 250.738 230.001 248.353 230.001C246.815 230.001 244.615 229.748 241.753 229.264C239.288 228.858 236.983 228.654 234.862 228.654C232.742 228.654 231.125 229.086 230.039 229.925C228.528 231.121 227.176 233.637 225.957 237.451C224.738 241.265 222.777 248.816 220.02 260.105L212.334 291.302C208.517 306.938 206.583 315.124 206.583 315.811C206.583 317.413 207.193 318.201 208.385 318.201C209.524 318.201 211.168 317.54 213.341 316.269C217.635 313.675 221.928 310.37 226.248 306.353Z" fill="#EE4137" stroke="#EE4137" stroke-width="1.88976" stroke-miterlimit="22.9256" stroke-linejoin="round"/>
<path d="M24.8743 256.219C27.9899 254.722 30.4335 252.899 32.1923 250.751C33.9515 248.603 34.824 246.363 34.824 244.059C34.824 241.923 34.2869 240.27 33.2263 239.098C32.1657 237.926 30.6752 237.341 28.7282 237.341C26.6601 237.341 25.049 237.979 23.9078 239.267C22.7662 240.556 22.2021 242.379 22.2021 244.736C22.2021 246.35 22.4303 248.108 22.8738 250.022C23.3172 251.949 23.9884 254.006 24.8743 256.219ZM32.1121 281.635C29.037 278.093 26.4319 274.682 24.2702 271.388C22.1085 268.094 20.3627 264.891 19.0604 261.792C15.7305 263.368 13.2325 265.19 11.5673 267.274C9.90256 269.344 9.07019 271.648 9.07019 274.187C9.07019 277.729 10.2249 280.71 12.5482 283.132C14.8711 285.567 17.704 286.778 21.0609 286.778C22.7932 286.778 24.6461 286.322 26.6066 285.411C28.567 284.486 30.4069 283.236 32.1121 281.635ZM33.7233 283.419C31.0781 285.945 28.2177 287.859 25.1431 289.186C22.0814 290.501 18.9528 291.166 15.7435 291.166C11.3125 291.166 7.7539 289.981 5.05513 287.598C2.35636 285.215 1 282.09 1 278.198C1 274.512 2.38338 271.154 5.13617 268.146C7.8885 265.138 12.1984 262.248 18.0668 259.501C17.1534 257.17 16.4822 255.087 16.0658 253.29C15.6494 251.48 15.4347 249.774 15.4347 248.173C15.4347 244.411 16.697 241.285 19.208 238.786C21.7326 236.299 24.9013 235.049 28.7282 235.049C31.9505 235.049 34.4485 235.817 36.2208 237.341C37.9932 238.864 38.8795 241.025 38.8795 243.824C38.8795 246.702 37.8721 249.267 35.8715 251.532C33.8574 253.797 30.541 256.076 25.8948 258.355C27.3183 261.102 28.97 263.915 30.8764 266.792C32.7698 269.669 34.878 272.547 37.1878 275.45C39.6313 272.351 41.5112 269.448 42.8271 266.74C44.1564 264.032 44.8276 261.74 44.8276 259.891C44.8276 258.798 44.4517 257.977 43.713 257.443C42.9882 256.91 41.7795 256.584 40.1013 256.454L40.1013 254.813L56.4294 254.813L56.4294 256.454C53.7302 256.506 51.1791 258.498 48.7887 262.443L48.601 262.743C48.3322 263.211 47.8892 263.992 47.2581 265.112C44.4247 270.151 41.6323 274.291 38.8795 277.547C41.2425 280.086 43.5658 282.052 45.8617 283.431C48.1575 284.825 50.2121 285.515 52.0249 285.515C53.4619 285.515 54.6972 285.241 55.7443 284.682C56.7783 284.122 57.9735 283.054 59.3429 281.478L60.3234 282.702C58.0941 285.749 55.9864 287.924 53.9854 289.225C51.9984 290.514 49.8092 291.166 47.4193 291.166C45.4187 291.166 43.2835 290.514 41.0012 289.225C38.7184 287.924 36.2879 285.983 33.7233 283.419Z" fill="#EE4137" stroke="#EE4137" stroke-width="1.88976" stroke-miterlimit="22.9256" stroke-linejoin="round"/>
<path d="M394.609 609.124L391.684 609.124C391.872 606.431 391.966 604.269 391.966 602.639C391.966 597.766 390.879 594.364 388.722 592.45C386.585 590.518 383.867 589.562 380.586 589.562C376.219 589.562 371.663 591.227 366.958 594.576C362.253 597.926 358.203 603.135 354.811 610.223C351.418 617.311 349.73 624.594 349.73 632.072C349.73 639.319 351.305 644.866 354.454 648.729C357.585 652.591 361.541 654.523 366.283 654.523C372.713 654.523 378.618 650.89 383.998 643.607C384.542 642.881 385.104 642.509 385.704 642.509C386.173 642.509 386.585 642.65 386.923 642.952C387.242 643.236 387.41 643.572 387.41 643.962C387.41 644.901 386.191 646.726 383.755 649.455C381.318 652.184 378.243 654.452 374.532 656.259C370.839 658.085 367.183 658.988 363.602 658.988C359.272 658.988 355.26 657.925 351.549 655.799C347.837 653.672 344.968 650.625 342.907 646.691C340.863 642.739 339.832 638.061 339.832 632.621C339.832 625.037 341.932 617.506 346.131 609.993C350.33 602.479 355.579 596.685 361.878 592.609C368.176 588.516 374.325 586.478 380.343 586.478C382.498 586.478 384.654 586.709 386.773 587.152C387.691 587.365 391.459 588.552 398.095 590.731C396.033 596.667 394.871 602.798 394.609 609.124ZM424.359 605.085C427.958 605.085 430.939 606.431 433.32 609.142C435.701 611.836 436.9 615.592 436.9 620.412C436.9 628.085 434.032 634.996 428.315 641.109C422.597 647.222 416.561 650.27 410.168 650.27C406.251 650.27 403.082 649.065 400.682 646.638C398.283 644.21 397.083 640.896 397.083 636.714C397.083 629.45 399.276 622.734 403.682 616.567C409.212 608.912 416.111 605.085 424.359 605.085ZM419.672 609.018C416.561 609.018 413.561 611.127 410.655 615.326C407.75 619.526 406.306 625.338 406.306 632.727C406.306 637.228 407.206 640.772 408.987 643.377C410.299 645.273 412.061 646.23 414.255 646.23C417.31 646.23 420.104 644.422 422.634 640.825C425.84 636.165 427.452 630.371 427.452 623.442C427.452 618.25 426.721 614.547 425.24 612.332C423.759 610.117 421.903 609.018 419.672 609.018ZM443.63 617.417L441.718 615.61C446.442 611.375 450.21 608.558 453.022 607.175C455.815 605.775 458.215 605.085 460.202 605.085C460.989 605.085 461.589 605.244 462.039 605.545C462.47 605.846 462.695 606.201 462.695 606.626C462.695 606.927 462.601 607.476 462.433 608.256L459.94 618.693C463.651 614.777 468.319 611.127 473.943 607.724C476.923 605.97 479.379 605.085 481.31 605.085C482.735 605.085 483.86 605.51 484.647 606.36C485.453 607.211 485.866 608.451 485.866 610.046C485.866 611.127 485.697 612.332 485.36 613.678C484.778 615.929 483.26 620.837 480.786 628.386C478.461 635.438 477.298 640.134 477.298 642.456C477.298 643.182 477.411 643.732 477.617 644.086C477.842 644.458 478.161 644.635 478.555 644.635C479.623 644.635 481.292 643.66 483.56 641.711C485.172 640.312 486.784 639.018 488.397 637.83L489.634 639.744C486.278 643.253 482.81 646.07 479.21 648.214C476.905 649.579 475.031 650.27 473.531 650.27C472.143 650.27 471.075 649.791 470.306 648.835C469.538 647.878 469.162 646.318 469.162 644.157C469.162 641.073 471.206 633.419 475.274 621.156C476.53 616.797 477.149 614.263 477.149 613.537C477.149 612.509 476.474 611.995 475.124 611.995C473.662 611.995 471.768 612.721 469.462 614.175C466.013 616.319 463.145 618.835 460.839 621.741C459.377 623.619 458.14 626.596 457.165 630.672L452.704 648.782L444.53 648.782C446.067 643.59 447.398 638.628 448.542 633.897L453.416 614.175C453.603 613.395 453.697 612.846 453.697 612.509C453.697 611.605 453.322 611.144 452.591 611.144C451.991 611.144 451.147 611.499 450.041 612.226C447.754 613.643 445.617 615.38 443.63 617.417ZM495.651 608.487L508.773 608.487C510.929 599.839 513.404 593.407 516.178 589.172C518.971 584.954 522.589 581.623 527.051 579.178C531.512 576.75 535.731 575.527 539.686 575.527C541.916 575.527 543.604 575.953 544.729 576.786C545.872 577.618 546.434 578.593 546.434 579.745C546.434 580.79 546.059 581.658 545.291 582.35C544.522 583.041 543.51 583.395 542.273 583.395C540.979 583.395 538.58 583.041 535.018 582.314C533.274 581.977 531.887 581.8 530.912 581.8C528.494 581.8 526.32 583.2 524.371 586.018C522.439 588.835 520.884 592.645 519.721 597.447L516.834 608.487L531.456 608.487L530.575 612.208L515.878 612.208L507.236 645.362C504.574 655.427 500.3 663.046 494.414 668.22C488.546 673.413 482.173 675.999 475.292 675.999C472.987 675.999 471.243 675.574 470.044 674.742C468.863 673.891 468.263 672.863 468.263 671.623C468.263 670.56 468.675 669.709 469.5 669.088C470.325 668.451 471.506 668.132 473.043 668.132C473.812 668.132 474.937 668.22 476.436 668.398C479.004 668.717 481.46 668.876 483.803 668.876C487.421 668.876 490.064 668.061 491.695 666.449C493.345 664.836 494.995 660.902 496.644 654.612L507.78 612.208L494.676 612.208L495.651 608.487ZM558.563 635.704L560.363 637.937C551.402 646.017 543.735 650.057 537.324 650.057C534.737 650.057 532.75 649.225 531.381 647.577C530.013 645.911 529.319 643.253 529.319 639.603C529.319 632.213 531.7 624.877 536.461 617.559C541.804 609.248 548.178 605.085 555.62 605.085C558.207 605.085 560.194 605.704 561.563 606.927C562.931 608.15 563.624 609.833 563.624 611.978C563.624 614.228 562.8 616.425 561.15 618.605C559.501 620.784 556.557 623.052 552.321 625.391C550.183 626.525 545.647 628.581 538.692 631.558C538.374 633.419 538.205 635.191 538.205 636.892C538.205 639.337 538.617 641.056 539.442 642.013C540.267 642.987 541.467 643.466 543.041 643.466C544.54 643.466 546.172 643.058 547.972 642.261C550.39 641.198 553.914 639 558.563 635.704ZM539.348 628.262C545.235 625.781 549.658 623.105 552.62 620.253C554.626 618.25 555.639 616.265 555.639 614.299C555.639 612.828 555.226 611.64 554.401 610.755C553.577 609.887 552.508 609.443 551.196 609.443C549.846 609.443 548.534 609.922 547.259 610.896C545.535 612.172 544.091 614.104 542.929 616.673C541.242 620.465 540.042 624.328 539.348 628.262ZM598.249 637.618L599.486 640.595C590.713 647.045 583.308 650.27 577.271 650.27C574.066 650.27 571.742 649.189 570.279 647.045C568.836 644.901 568.105 642.172 568.105 638.876C568.105 633.401 569.642 627.766 572.735 621.989C575.81 616.195 579.559 611.765 583.946 608.664C587.395 606.271 591.294 605.085 595.624 605.085C598.324 605.085 600.386 605.563 601.773 606.537C603.179 607.512 603.873 608.681 603.873 610.063C603.873 611.144 603.497 612.013 602.767 612.686C602.035 613.36 601.004 613.696 599.692 613.696C598.418 613.696 596.768 613.147 594.743 612.048C592.662 610.879 590.919 610.294 589.513 610.294C587.732 610.294 585.932 611.056 584.151 612.598C582.389 614.139 580.684 617.134 579.071 621.564C577.459 625.994 576.653 630.459 576.653 634.925C576.653 638.203 577.328 640.754 578.696 642.562C579.69 643.944 581.077 644.635 582.877 644.635C587.17 644.635 592.307 642.296 598.249 637.618ZM636.472 637.618L637.71 640.595C628.936 647.045 621.531 650.27 615.495 650.27C612.29 650.27 609.965 649.189 608.503 647.045C607.059 644.901 606.328 642.172 606.328 638.876C606.328 633.401 607.865 627.766 610.958 621.989C614.033 616.195 617.782 611.765 622.169 608.664C625.618 606.271 629.517 605.085 633.847 605.085C636.547 605.085 638.609 605.563 639.996 606.537C641.403 607.512 642.096 608.681 642.096 610.063C642.096 611.144 641.721 612.013 640.99 612.686C640.259 613.36 639.228 613.696 637.915 613.696C636.641 613.696 634.991 613.147 632.966 612.048C630.886 610.879 629.142 610.294 627.736 610.294C625.955 610.294 624.156 611.056 622.375 612.598C620.613 614.139 618.907 617.134 617.295 621.564C615.682 625.994 614.877 630.459 614.877 634.925C614.877 638.203 615.552 640.754 616.92 642.562C617.914 643.944 619.301 644.635 621.1 644.635C625.393 644.635 630.53 642.296 636.472 637.618ZM617.014 647.825L620.613 647.825L617.257 653.708C619.301 653.973 620.8 654.629 621.756 655.657C622.713 656.667 623.2 657.872 623.2 659.272C623.2 661.682 621.644 664.145 618.514 666.626C615.401 669.106 610.996 670.772 605.316 671.64L606.441 668.557C609.797 667.902 612.496 666.732 614.539 665.066C615.963 663.915 616.676 662.603 616.676 661.15C616.676 660.034 616.207 659.113 615.289 658.35C614.37 657.606 613.264 657.234 611.934 657.234C611.708 657.234 611.427 657.252 611.052 657.287L617.014 647.825ZM671.715 605.085C675.314 605.085 678.295 606.431 680.675 609.142C683.056 611.836 684.256 615.592 684.256 620.412C684.256 628.085 681.387 634.996 675.67 641.109C669.953 647.222 663.916 650.27 657.524 650.27C653.606 650.27 650.438 649.065 648.038 646.638C645.639 644.21 644.439 640.896 644.439 636.714C644.439 629.45 646.633 622.734 651.038 616.567C656.568 608.912 663.466 605.085 671.715 605.085ZM667.028 609.018C663.916 609.018 660.917 611.127 658.011 615.326C655.106 619.526 653.662 625.338 653.662 632.727C653.662 637.228 654.562 640.772 656.343 643.377C657.655 645.273 659.417 646.23 661.611 646.23C664.666 646.23 667.459 644.422 669.99 640.825C673.196 636.165 674.808 630.371 674.808 623.442C674.808 618.25 674.077 614.547 672.596 612.332C671.115 610.117 669.259 609.018 667.028 609.018ZM687.405 587.117L690.442 587.117C689.411 590.306 687.911 592.751 685.905 594.452C683.919 596.154 681.8 597.004 679.57 597.004C678.426 597.004 677.395 596.898 676.495 596.685C676.008 596.579 674.789 596.065 672.802 595.143C670.759 594.222 669.447 593.672 668.902 593.495C668.097 593.283 667.291 593.177 666.485 593.177C665.491 593.177 664.647 593.442 663.954 593.973C663.26 594.506 662.529 595.515 661.761 597.004L658.724 597.004C659.605 593.566 660.973 591.068 662.829 589.491C664.685 587.914 666.709 587.117 668.865 587.117C670.496 587.117 672.933 587.736 676.214 588.977C679.288 590.146 681.463 590.731 682.719 590.731C683.899 590.731 684.931 590.377 685.831 589.686C686.73 588.995 687.255 588.144 687.405 587.117ZM718.205 635.704L720.005 637.937C711.044 646.017 703.377 650.057 696.966 650.057C694.379 650.057 692.392 649.225 691.023 647.577C689.655 645.911 688.962 643.253 688.962 639.603C688.962 632.213 691.342 624.877 696.103 617.559C701.447 609.248 707.82 605.085 715.262 605.085C717.849 605.085 719.836 605.704 721.205 606.927C722.574 608.15 723.267 609.833 723.267 611.978C723.267 614.228 722.442 616.425 720.792 618.605C719.143 620.784 716.2 623.052 711.963 625.391C709.826 626.525 705.289 628.581 698.335 631.558C698.016 633.419 697.847 635.191 697.847 636.892C697.847 639.337 698.26 641.056 699.084 642.013C699.909 642.987 701.109 643.466 702.684 643.466C704.183 643.466 705.814 643.058 707.614 642.261C710.032 641.198 713.556 639 718.205 635.704ZM698.99 628.262C704.877 625.781 709.301 623.105 712.263 620.253C714.268 618.25 715.281 616.265 715.281 614.299C715.281 612.828 714.869 611.64 714.044 610.755C713.219 609.887 712.15 609.443 710.838 609.443C709.488 609.443 708.177 609.922 706.901 610.896C705.177 612.172 703.733 614.104 702.571 616.673C700.884 620.465 699.684 624.328 698.99 628.262ZM751.704 605.085C754.966 605.085 757.497 605.687 759.279 606.892C761.059 608.097 761.94 609.479 761.94 611.038C761.94 611.978 761.565 612.81 760.815 613.501C760.065 614.192 759.166 614.547 758.097 614.547C757.404 614.547 756.804 614.405 756.279 614.104C755.773 613.803 755.042 613.058 754.085 611.888C752.286 609.62 750.524 608.487 748.762 608.487C747.262 608.487 745.931 609.036 744.769 610.117C743.625 611.197 743.044 612.562 743.044 614.175C743.044 615.592 743.4 616.975 744.131 618.303C744.862 619.632 746.719 621.776 749.68 624.736C753.729 628.811 755.754 632.674 755.754 636.343C755.754 639.993 754.104 643.2 750.805 645.946C747.506 648.693 743.269 650.057 738.076 650.057C733.708 650.057 730.465 649.225 728.347 647.559C726.229 645.876 725.16 643.82 725.16 641.375C725.16 640.17 725.554 639.177 726.36 638.38C727.166 637.582 728.141 637.193 729.322 637.193C730.334 637.193 731.215 637.512 731.946 638.15C732.677 638.788 733.033 639.532 733.033 640.4C733.033 640.754 733.015 641.198 732.958 641.747C732.94 642.19 732.921 642.58 732.921 642.881C732.921 644.033 733.427 644.989 734.458 645.787C735.452 646.584 736.82 646.974 738.545 646.974C740.514 646.974 742.257 646.655 743.775 646.017C745.275 645.38 746.437 644.405 747.281 643.111C748.124 641.818 748.556 640.524 748.556 639.248C748.556 638.008 748.162 636.768 747.374 635.509C746.568 634.269 744.806 632.213 742.032 629.343C738.207 625.338 736.296 621.475 736.296 617.79C736.296 614.405 737.739 611.428 740.645 608.894C743.551 606.36 747.225 605.085 751.704 605.085Z" fill="#33613D" stroke="#33613D" stroke-width="1.88976" stroke-miterlimit="22.9256"/>
<path fill-rule="evenodd" clip-rule="evenodd" d="M344.204 493.082C346.173 493.061 350.055 492.858 351.995 492.738C353.935 492.618 353.933 492.58 353.874 491.195C353.815 489.81 353.698 487.077 353.64 485.711C353.582 484.344 353.582 484.344 351.809 482.408C350.036 480.47 346.491 476.597 344.718 474.66C342.945 472.724 342.945 472.723 342.584 474.541C342.223 476.359 341.501 479.994 341.14 481.812C340.779 483.629 340.779 483.629 340.894 484.784C341.009 485.94 341.239 488.251 341.356 489.431C341.473 490.61 341.478 490.657 341.588 491.027C341.697 491.397 341.912 492.088 342.046 492.514C342.181 492.941 342.236 493.102 344.204 493.082Z" fill="#33613D" stroke="#33613D" stroke-width="5.33329" stroke-miterlimit="22.9256"/>
<path fill-rule="evenodd" clip-rule="evenodd" d="M93.2704 514.626C93.166 514.749 93.166 514.749 94.0694 515.34C94.9729 515.931 96.7799 517.113 98.1822 518.099C99.5845 519.084 100.583 519.872 101.957 521.142C103.332 522.412 105.083 524.163 106.909 525.757C108.736 527.352 110.638 528.79 112.665 530.129C114.691 531.468 116.842 532.708 118.873 533.406C120.905 534.103 122.815 534.258 124.819 534.164C126.822 534.069 128.918 533.724 131.196 533.098C133.474 532.472 135.934 531.566 138.578 530.143C141.222 528.719 144.049 526.779 146.106 525.199C148.164 523.619 149.451 522.398 150.718 521.163C151.986 519.929 153.236 518.68 153.86 518.055C154.484 517.431 154.484 517.431 154.157 516.745C153.829 516.06 153.174 514.689 151.065 512.462C148.957 510.235 145.397 507.151 143.043 505.036C140.689 502.92 139.542 501.773 137.502 500.812C135.463 499.851 132.531 499.077 129.819 498.69C127.108 498.302 124.618 498.302 121.653 498.934C118.689 499.566 115.251 500.829 111.996 502.701C108.741 504.571 105.669 507.05 103.586 508.635C101.502 510.22 100.408 510.912 98.9407 511.658C97.4736 512.405 95.6333 513.207 94.6087 513.731C93.5842 514.255 93.3748 514.502 93.2704 514.626Z" fill="#33613D"/>
<path fill-rule="evenodd" clip-rule="evenodd" d="M101.098 513.889C100.974 513.888 100.974 513.888 102.919 512.383C104.863 510.878 108.752 507.867 112.45 505.627C116.148 503.387 119.656 501.916 122.818 501.278C125.981 500.64 128.799 500.834 131.011 501.207C133.222 501.58 134.827 502.131 137.892 504.343C140.958 506.554 145.486 510.426 147.749 512.362C150.013 514.298 150.013 514.298 141.964 514.231C133.914 514.164 117.815 514.029 109.642 513.961C101.469 513.892 101.221 513.89 101.098 513.889Z" fill="white"/>
<path fill-rule="evenodd" clip-rule="evenodd" d="M100.701 517.606C100.571 517.509 100.571 517.509 108.544 517.779C116.517 518.049 132.462 518.589 140.434 518.859C148.407 519.129 148.407 519.129 148.05 519.799C147.692 520.469 146.977 521.81 144.384 523.747C141.792 525.683 137.323 528.216 133.211 529.482C129.099 530.749 125.345 530.749 122.299 530.197C119.254 529.646 116.916 528.542 113.543 526.434C110.17 524.325 105.762 521.21 103.427 519.555C101.092 517.9 100.832 517.704 100.701 517.606Z" fill="white"/>
<path fill-rule="evenodd" clip-rule="evenodd" d="M279.012 517.956C279.117 517.833 279.117 517.833 278.213 517.242C277.31 516.651 275.503 515.468 274.1 514.483C272.698 513.498 271.7 512.709 270.325 511.439C268.951 510.17 267.2 508.419 265.373 506.824C263.546 505.229 261.645 503.791 259.618 502.452C257.591 501.114 255.44 499.874 253.409 499.176C251.378 498.478 249.467 498.323 247.464 498.418C245.46 498.512 243.364 498.857 241.087 499.483C238.808 500.109 236.348 501.015 233.704 502.439C231.06 503.862 228.233 505.802 226.176 507.383C224.119 508.963 222.832 510.183 221.564 511.418C220.296 512.653 219.047 513.902 218.422 514.526C217.798 515.151 217.798 515.151 218.126 515.836C218.453 516.521 219.109 517.892 221.217 520.119C223.325 522.346 226.886 525.43 229.24 527.546C231.593 529.661 232.74 530.808 234.78 531.769C236.819 532.73 239.752 533.505 242.463 533.892C245.175 534.279 247.665 534.279 250.629 533.648C253.594 533.016 257.032 531.752 260.287 529.881C263.542 528.01 266.614 525.532 268.697 523.947C270.78 522.362 271.874 521.67 273.342 520.923C274.809 520.176 276.649 519.375 277.674 518.851C278.698 518.326 278.908 518.079 279.012 517.956Z" fill="#33613D"/>
<path fill-rule="evenodd" clip-rule="evenodd" d="M271.185 518.692C271.308 518.693 271.308 518.693 269.364 520.198C267.419 521.704 263.53 524.714 259.832 526.955C256.134 529.195 252.626 530.665 249.464 531.304C246.301 531.941 243.483 531.747 241.272 531.374C239.06 531.002 237.456 530.451 234.39 528.239C231.324 526.028 226.797 522.155 224.533 520.22C222.269 518.283 222.269 518.283 230.319 518.35C238.368 518.418 254.467 518.553 262.64 518.621C270.813 518.689 271.061 518.691 271.185 518.692Z" fill="white"/>
<path fill-rule="evenodd" clip-rule="evenodd" d="M271.582 514.974C271.712 515.072 271.712 515.072 263.74 514.802C255.767 514.532 239.822 513.992 231.849 513.722C223.876 513.452 223.876 513.452 224.234 512.782C224.592 512.111 225.306 510.771 227.899 508.834C230.491 506.897 234.96 504.365 239.072 503.098C243.184 501.832 246.938 501.832 249.984 502.384C253.03 502.935 255.367 504.038 258.74 506.147C262.113 508.256 266.522 511.371 268.856 513.026C271.191 514.681 271.451 514.877 271.582 514.974Z" fill="white"/>
<path fill-rule="evenodd" clip-rule="evenodd" d="M189.202 429.004C189.078 428.9 189.078 428.9 188.487 429.803C187.896 430.707 186.714 432.514 185.728 433.916C184.743 435.319 183.955 436.317 182.685 437.691C181.416 439.066 179.664 440.817 178.07 442.644C176.475 444.47 175.037 446.372 173.698 448.399C172.359 450.425 171.119 452.577 170.422 454.607C169.724 456.638 169.569 458.549 169.663 460.553C169.758 462.556 170.103 464.652 170.729 466.93C171.354 469.208 172.261 471.669 173.684 474.312C175.107 476.956 177.048 479.783 178.628 481.84C180.208 483.898 181.429 485.185 182.664 486.453C183.898 487.72 185.148 488.97 185.772 489.594C186.396 490.218 186.396 490.218 187.082 489.891C187.767 489.563 189.137 488.907 191.365 486.799C193.592 484.692 196.675 481.131 198.791 478.777C200.907 476.423 202.054 475.276 203.015 473.237C203.976 471.197 204.75 468.264 205.138 465.553C205.525 462.842 205.525 460.351 204.893 457.387C204.261 454.423 202.998 450.985 201.127 447.73C199.255 444.475 196.777 441.402 195.192 439.319C193.607 437.236 192.915 436.142 192.168 434.675C191.422 433.208 190.62 431.367 190.096 430.343C189.572 429.318 189.325 429.109 189.202 429.004Z" fill="#33613D"/>
<path fill-rule="evenodd" clip-rule="evenodd" d="M189.938 436.833C189.939 436.709 189.939 436.709 191.445 438.653C192.95 440.598 195.96 444.487 198.201 448.185C200.441 451.883 201.911 455.391 202.549 458.554C203.188 461.717 202.993 464.534 202.62 466.746C202.248 468.957 201.697 470.561 199.485 473.628C197.273 476.693 193.401 481.221 191.465 483.485C189.529 485.748 189.529 485.748 189.597 477.698C189.664 469.649 189.799 453.55 189.867 445.377C189.935 437.204 189.937 436.957 189.938 436.833Z" fill="white"/>
<path fill-rule="evenodd" clip-rule="evenodd" d="M186.22 436.436C186.318 436.306 186.318 436.306 186.048 444.279C185.778 452.251 185.238 468.196 184.968 476.169C184.698 484.141 184.698 484.141 184.027 483.784C183.357 483.427 182.017 482.711 180.08 480.119C178.143 477.527 175.611 473.057 174.344 468.946C173.078 464.834 173.078 461.08 173.629 458.034C174.181 454.989 175.284 452.651 177.393 449.278C179.501 445.905 182.617 441.496 184.272 439.161C185.927 436.827 186.122 436.566 186.22 436.436Z" fill="white"/>
<path fill-rule="evenodd" clip-rule="evenodd" d="M184.864 610.905C184.988 611.009 184.988 611.009 185.579 610.106C186.17 609.202 187.353 607.396 188.338 605.993C189.323 604.591 190.111 603.593 191.381 602.218C192.651 600.843 194.402 599.092 195.997 597.266C197.591 595.439 199.029 593.537 200.368 591.51C201.707 589.484 202.947 587.333 203.645 585.302C204.342 583.271 204.498 581.36 204.403 579.356C204.308 577.353 203.963 575.257 203.337 572.979C202.711 570.701 201.805 568.241 200.382 565.597C198.958 562.953 197.019 560.126 195.438 558.069C193.858 556.012 192.637 554.724 191.402 553.457C190.167 552.189 188.919 550.94 188.294 550.315C187.669 549.691 187.669 549.691 186.984 550.018C186.299 550.346 184.928 551.001 182.701 553.11C180.474 555.218 177.39 558.778 175.275 561.132C173.16 563.486 172.012 564.633 171.051 566.673C170.09 568.712 169.316 571.644 168.928 574.356C168.541 577.067 168.541 579.558 169.173 582.522C169.805 585.486 171.069 588.924 172.939 592.179C174.811 595.434 177.289 598.507 178.874 600.59C180.459 602.673 181.151 603.767 181.897 605.234C182.644 606.701 183.446 608.542 183.97 609.566C184.494 610.591 184.741 610.8 184.864 610.905Z" fill="#33613D"/>
<path fill-rule="evenodd" clip-rule="evenodd" d="M184.128 603.077C184.126 603.2 184.126 603.2 182.622 601.256C181.116 599.311 178.106 595.422 175.865 591.724C173.625 588.026 172.155 584.518 171.516 581.356C170.878 578.193 171.073 575.375 171.446 573.164C171.818 570.953 172.369 569.348 174.581 566.282C176.792 563.216 180.665 558.689 182.6 556.425C184.537 554.161 184.537 554.161 184.469 562.211C184.402 570.26 184.267 586.359 184.199 594.532C184.131 602.705 184.129 602.953 184.128 603.077Z" fill="white"/>
<path fill-rule="evenodd" clip-rule="evenodd" d="M187.845 603.474C187.747 603.604 187.747 603.604 188.017 595.632C188.287 587.659 188.827 571.714 189.097 563.741C189.367 555.768 189.367 555.768 190.038 556.126C190.708 556.484 192.048 557.198 193.985 559.791C195.922 562.383 198.454 566.852 199.721 570.964C200.987 575.076 200.987 578.83 200.436 581.876C199.884 584.922 198.781 587.259 196.672 590.632C194.563 594.005 191.448 598.414 189.793 600.748C188.138 603.083 187.942 603.344 187.845 603.474Z" fill="white"/>
<path d="M495.971 396.823C496.577 387.498 497.184 378.174 497.796 369.197C498.409 360.22 499.029 351.59 499.632 344.73C500.235 337.869 500.821 332.777 501.801 325.698C502.781 318.617 504.155 309.549 506.938 296.67C509.722 283.791 513.915 267.102 520.551 248.5C527.187 229.899 536.266 209.385 540.805 199.129C545.345 188.872 545.345 188.872 545.345 188.872" stroke="#EE4137" stroke-width="5.33329" stroke-miterlimit="22.9256"/>
<path d="M552.682 194.611C550.704 198.294 548.727 201.976 546.089 208.42C543.452 214.864 540.153 224.07 536.617 235.187C533.082 246.304 529.31 259.332 526.122 273.41C522.934 287.489 520.332 302.619 518.424 318.44C516.515 334.261 515.301 350.773 514.556 363.125C513.811 375.477 513.536 383.671 513.26 391.864" stroke="#EE4137" stroke-width="5.33329" stroke-miterlimit="22.9256"/>
<path d="M530.854 384.005C530.498 379.069 530.143 374.132 530.904 361.912C531.666 349.692 533.545 330.189 535.617 314.538C537.689 298.886 539.954 287.088 542.933 275.497C545.913 263.907 549.607 252.525 553.606 241.299C557.605 230.072 561.908 219.001 566.211 207.93" stroke="#EE4137" stroke-width="5.33329" stroke-miterlimit="22.9256"/>
<path d="M578.768 225.33C576.67 228.56 574.571 231.79 571.406 239.913C568.242 248.037 564.011 261.054 560.645 273.29C557.278 285.526 554.777 296.98 552.879 310.186C550.982 323.391 549.688 338.348 548.876 349.175C548.064 360.002 547.733 366.7 547.402 373.398" stroke="#EE4137" stroke-width="5.33329" stroke-miterlimit="22.9256"/>
<path d="M563.965 358.375C563.923 350.937 563.882 343.498 564.611 334.72C565.34 325.942 566.84 315.825 568.499 307.229C570.158 298.634 571.977 291.56 574.81 283.595C577.643 275.629 581.491 266.773 584.118 260.993C586.745 255.213 588.151 252.508 589.557 249.804" stroke="#EE4137" stroke-width="5.33329" stroke-miterlimit="22.9256"/>
<path d="M594.263 278.285C592.897 282.387 591.53 286.488 590.252 290.715C588.974 294.942 587.785 299.295 586.662 303.817C585.538 308.34 584.479 313.032 583.765 317.166C583.05 321.3 582.679 324.875 582.531 327.18C582.383 329.485 582.458 330.521 582.532 331.556" stroke="#EE4137" stroke-width="5.33329" stroke-miterlimit="22.9256"/>
<path d="M475.111 399.651C476.476 396.983 477.84 394.315 480.889 390.559C483.939 386.802 488.674 381.956 491.7 379.247C494.727 376.538 496.046 375.967 497.365 375.396" stroke="#EE4137" stroke-width="5.33329" stroke-miterlimit="22.9256"/>
<path d="M459.542 399.684C465.378 389.567 471.214 379.451 476.125 372.677C481.035 365.905 485.021 362.476 488.708 359.293C492.395 356.11 495.783 353.174 499.172 350.237" stroke="#EE4137" stroke-width="5.33329" stroke-miterlimit="22.9256"/>
<path d="M444.093 397.972C449.001 389.32 453.909 380.667 459.074 372.945C464.239 365.222 469.662 358.429 474.816 352.857C479.971 347.285 484.857 342.935 489.128 339.605C493.399 336.275 497.055 333.965 500.71 331.655" stroke="#EE4137" stroke-width="5.33329" stroke-miterlimit="22.9256"/>
<path d="M429.421 394.647C432.308 389.784 435.194 384.921 438.995 378.886C442.796 372.852 447.513 365.644 452.191 358.762C456.869 351.879 461.508 345.321 466.826 339.043C472.144 332.765 478.141 326.769 483.713 321.525C489.285 316.281 494.431 311.79 497.994 308.914C501.557 306.037 503.537 304.776 505.517 303.515" stroke="#EE4137" stroke-width="5.33329" stroke-miterlimit="22.9256"/>
<path d="M412.516 388.542C419.548 377.491 426.579 366.44 435.51 353.905C444.441 341.371 455.271 327.353 465.047 316.327C474.823 305.301 483.544 297.266 491.199 290.999C498.853 284.731 505.441 280.23 512.028 275.729" stroke="#EE4137" stroke-width="5.33329" stroke-miterlimit="22.9256"/>
<path d="M400.594 382.553C410.278 368.24 419.963 353.928 426.782 343.912C433.601 333.897 437.554 328.18 442.505 321.647C447.456 315.114 453.405 307.765 459.88 300.59C466.355 293.415 473.357 286.413 480.557 279.917C487.757 273.421 495.154 267.432 501.853 262.28C508.552 257.128 514.552 252.815 520.551 248.501" stroke="#EE4137" stroke-width="5.33329" stroke-miterlimit="22.9256"/>
<path d="M390.348 376.072C393.698 373.812 397.048 371.552 401.486 366.761C405.923 361.969 411.447 354.645 416.19 347.257C420.933 339.87 424.895 332.418 428.475 324.489C432.055 316.56 435.251 308.154 437.82 299.469C440.389 290.784 442.33 281.821 443.703 272.189C445.075 262.557 445.88 252.256 446.216 238.507C446.551 224.76 446.417 207.565 446.237 194.835C446.057 182.104 445.83 173.839 445.603 165.573" stroke="#EE4137" stroke-width="5.33329" stroke-miterlimit="22.9256"/>
<path d="M456.956 164.272C459.906 164.837 462.855 165.402 465.733 165.766C468.611 166.129 471.418 166.291 474.04 166.38C476.662 166.47 479.099 166.486 480.915 166.259C482.731 166.032 483.927 165.56 485.121 165.089" stroke="#EE4137" stroke-width="5.33329" stroke-miterlimit="22.9256"/>
<path d="M339.767 283.608C341.809 282.228 343.852 280.847 346.464 277.146C349.075 273.446 352.254 267.425 354.316 262.583C356.376 257.74 357.32 254.075 357.885 248.399C358.45 242.723 358.637 235.035 358.731 229.923C358.825 224.812 358.825 222.278 358.825 219.743" stroke="#EE4137" stroke-width="5.33329" stroke-miterlimit="22.9256"/>
<path d="M343.898 311.871C346.272 310.732 348.646 309.594 352.546 304.118C356.446 298.643 361.871 288.83 365.429 280.933C368.988 273.035 370.679 267.053 371.81 258.683C372.941 250.313 373.511 239.556 373.797 229.593C374.082 219.63 374.082 210.462 374.082 201.294" stroke="#EE4137" stroke-width="5.33329" stroke-miterlimit="22.9256"/>
<path d="M350.146 328.668C353.775 326.101 357.403 323.535 361.868 317.951C366.333 312.366 371.636 303.764 375.582 295.9C379.528 288.036 382.118 280.909 384.145 273.113C386.172 265.318 387.635 256.853 388.367 247.507C389.098 238.161 389.098 227.935 388.98 219.582C388.862 211.229 388.625 204.749 388.389 200.071C388.152 195.393 387.916 192.517 387.679 189.641" stroke="#EE4137" stroke-width="5.33329" stroke-miterlimit="22.9256"/>
<path d="M369.271 357.452C372.752 354.558 376.233 351.663 380.149 346.997C384.065 342.332 388.415 335.896 392.539 328.418C396.663 320.94 400.562 312.419 403.668 304.331C406.775 296.242 409.09 288.586 410.759 280.574C412.427 272.562 413.449 264.195 414.126 253.512C414.804 242.829 415.137 229.83 415.29 218.238C415.444 206.647 415.419 196.462 415.239 189.397C415.058 182.333 414.722 178.388 414.387 174.443" stroke="#EE4137" stroke-width="5.33329" stroke-miterlimit="22.9256"/>
<path d="M402.521 180.166C402.937 189.946 403.355 199.725 403.516 212.824C403.678 225.922 403.585 242.339 401.944 256.818C400.303 271.297 397.114 283.838 392.57 296.025C388.026 308.211 382.127 320.043 377.405 327.732C372.683 335.421 369.137 338.966 366.485 341.357C363.832 343.748 362.073 344.984 360.314 346.221" stroke="#EE4137" stroke-width="5.33329" stroke-miterlimit="22.9256"/>
<path d="M378.752 366.889C384.18 362.021 389.608 357.154 394.912 350.599C400.216 344.044 405.396 335.802 409.695 327.736C413.995 319.671 417.414 311.783 420.613 302.268C423.813 292.752 426.792 281.608 428.639 269.929C430.487 258.249 431.202 246.033 431.56 233.996C431.917 221.959 431.917 210.1 431.282 199.385C430.648 188.67 429.379 179.099 428.11 169.527" stroke="#EE4137" stroke-width="5.33329" stroke-miterlimit="22.9256"/>
<path d="M440.4 289.76C451.766 278.337 463.131 266.914 474.3 257.549C485.468 248.184 496.44 240.877 505.783 235.438C515.127 229.999 522.842 226.428 530.557 222.856" stroke="#EE4137" stroke-width="5.33329" stroke-miterlimit="22.9256"/>
<path d="M445.089 260.058C454.733 250.38 464.377 240.702 472.113 233.479C479.848 226.256 485.674 221.488 490.912 217.662C496.15 213.837 500.8 210.953 505.777 207.737C510.754 204.521 516.058 200.973 521.362 197.424" stroke="#EE4137" stroke-width="5.33329" stroke-miterlimit="22.9256"/>
<path d="M446.323 233.027C450.795 228.123 455.267 223.219 460.314 218.498C465.361 213.777 470.983 209.239 476.605 204.7" stroke="#EE4137" stroke-width="5.33329" stroke-miterlimit="22.9256"/>
<path d="M446.617 202.514C453.787 203.203 460.957 203.892 467.693 204.318C474.429 204.744 480.731 204.908 487.658 204.446C494.585 203.985 502.139 202.897 510.142 200.817C518.147 198.737 526.601 195.664 532.365 193.38C538.128 191.095 541.199 189.598 544.269 188.102" stroke="#EE4137" stroke-width="5.33329" stroke-miterlimit="22.9256"/>
<path d="M446.283 190.37C460.555 190.442 474.827 190.514 485.088 189.715C495.349 188.917 501.599 187.248 506.7 185.648C511.801 184.049 515.754 182.517 518.792 181.144C521.831 179.771 523.956 178.557 526.081 177.343" stroke="#EE4137" stroke-width="5.33329" stroke-miterlimit="22.9256"/>
<path d="M445.915 176.921C453.69 177.436 461.466 177.951 467.746 178.033C474.026 178.115 478.811 177.763 483.814 176.696C488.817 175.629 494.038 173.848 497.649 172.499C501.26 171.151 503.262 170.236 505.264 169.32" stroke="#EE4137" stroke-width="5.33329" stroke-miterlimit="22.9256"/>
</svg>
