<svg width="51" height="49" viewBox="0 0 51 49" fill="none" xmlns="http://www.w3.org/2000/svg">
<path fill-rule="evenodd" clip-rule="evenodd" d="M3.08451 0.868787C0.103533 2.4515 0.0251824 3.04734 0.00210228 24.379C-0.0209778 46.0359 0.0895638 46.836 3.30438 48.2389C5.80857 49.3323 45.64 49.2124 47.8751 48.1051C50.8822 46.6155 51 45.7258 51 24.4954C51 3.26496 50.8822 2.37527 47.8751 0.885662C45.513 -0.284496 5.28501 -0.300207 3.08451 0.868787ZM3.62507 3.54776C2.4577 4.66613 2.41033 5.48716 2.41033 24.4954C2.41033 43.5036 2.4577 44.3246 3.62507 45.443C4.79244 46.5614 5.64944 46.6068 25.4904 46.6068C45.3314 46.6068 46.1884 46.5614 47.3558 45.443C48.5231 44.3246 48.5705 43.5036 48.5705 24.4954C48.5705 5.48716 48.5231 4.66613 47.3558 3.54776C46.1884 2.42939 45.3314 2.384 25.4904 2.384C5.64944 2.384 4.79244 2.42939 3.62507 3.54776ZM25.7789 7.76637C25.624 8.16671 25.4279 13.9645 25.3422 20.6509L25.1867 32.8081L23.5177 34.0015C21.4368 35.4894 19.0013 34.865 17.6134 32.4886C16.7783 31.0584 16.7783 30.7325 17.6146 29.2959C18.2299 28.238 19.3195 27.5107 20.8301 27.1505L23.115 26.6053L22.9358 23.3683C22.7755 20.4606 22.6103 20.1115 21.3123 19.9358C17.2362 19.383 10.7738 24.1346 9.96177 28.2799C8.33037 36.6107 15.2623 43.2645 23.9465 41.7039C26.7125 41.2063 30.2194 38.2743 31.6461 35.2654C32.4934 33.479 32.7552 31.4651 32.7655 26.664L32.7789 20.3955L34.2378 21.3113C35.0407 21.8152 36.8853 22.2796 38.3375 22.343L40.9784 22.4588L41.1582 18.8517L41.3386 15.2447L38.9929 14.6395C36.2549 13.9331 34.4279 12.2497 33.1032 9.21292C32.1867 7.11176 32.0531 7.03903 29.1073 7.03903C27.2239 7.03903 25.9526 7.31716 25.7789 7.76637ZM27.9175 20.8586C27.9157 31.2231 27.799 32.5335 26.7319 34.2104C23.1041 39.9105 13.3782 36.2022 14.8718 29.6875C15.2751 27.9273 18.3016 25.0773 19.7672 25.0773C20.2901 25.0773 20.6315 24.4878 20.6315 23.5836C20.6315 22.3046 20.4347 22.1463 19.2649 22.4862C16.5129 23.2845 14.0542 25.1465 13.0345 27.2052C11.7505 29.798 12.0894 33.8502 13.7748 36.0538C17.6991 41.1854 26.5418 40.4447 29.3636 34.7475C30.1222 33.2154 30.3494 30.942 30.3494 24.8783C30.3494 19.859 30.5875 16.8588 31.006 16.6109C31.3673 16.3968 32.4126 16.9106 33.3298 17.7514C34.2463 18.5928 35.8637 19.5197 36.9242 19.8113C38.7493 20.3128 38.852 20.2576 38.8441 18.7813C38.8368 17.521 38.2677 16.9222 35.8752 15.6584C33.7391 14.5301 32.6009 13.4409 31.7846 11.7458C30.9586 10.0305 30.2844 9.39272 29.2865 9.38167L27.9199 9.36654L27.9175 20.8586Z" fill="#025213"/>
</svg>
