<svg width="49" height="49" viewBox="0 0 49 49" fill="none" xmlns="http://www.w3.org/2000/svg">
<path fill-rule="evenodd" clip-rule="evenodd" d="M18.0742 0.877C9.72521 3.05959 2.7437 10.2313 0.759059 18.6641C-0.592357 24.4056 -0.161122 29.1415 2.22857 34.7952C3.03279 36.6969 2.99913 37.0302 1.4516 42.4779C0.443248 46.0265 0.0227004 48.3611 0.335305 48.6741C0.648445 48.9877 3.00714 48.6324 6.59703 47.7318L12.3564 46.2866L15.8972 47.4761C25.8647 50.8257 35.2306 48.611 42.2196 41.251C51.4283 31.5542 51.2344 16.6993 41.7761 7.2284C35.4101 0.853991 26.8928 -1.42866 18.0742 0.877ZM18.6358 2.86375C5.54539 6.52424 -1.19085 20.4486 3.92893 33.2633L5.32256 36.7515L3.96847 41.4281C3.22356 44.0002 2.70255 46.193 2.80996 46.3005C2.91737 46.4081 5.24882 45.9324 7.99119 45.2432L12.9768 43.9895L16.2071 45.3368C20.6151 47.1754 28.1283 47.239 32.5294 45.4743C36.4383 43.9071 40.1222 41.1273 42.4045 38.0212C45.562 33.725 46.6233 30.3262 46.6233 24.5136C46.6233 18.7011 45.562 15.3022 42.4045 11.0061C37.259 4.00454 27.0553 0.508864 18.6358 2.86375ZM13.6892 12.2517C12.3351 13.0415 10.6203 16.6827 10.6203 18.769C10.6203 23.5928 17.7632 32.2557 24.2445 35.2928C26.2388 36.2276 28.9993 37.1009 30.3791 37.2336C34.6048 37.6402 37.9687 35.1858 38.0782 31.6158C38.1386 29.6488 38.0478 29.5487 34.5557 27.7311L30.9711 25.8658L29.1131 27.6685L27.2551 29.4717L24.8339 28.0511C23.5023 27.2693 21.7693 25.7855 20.9827 24.7534C19.556 22.88 19.5554 22.8731 20.5232 21.0731C21.4578 19.3351 21.4583 19.1741 20.5344 16.6742C18.9917 12.4989 18.2959 11.6696 16.3524 11.6878C15.4039 11.6969 14.2054 11.9505 13.6892 12.2517ZM14.1749 14.7923C13.664 15.3573 13.1104 16.6587 12.9442 17.6844C11.8402 24.4954 25.7872 36.7574 32.6699 35.0274C34.2009 34.6427 36.2699 32.7448 36.2699 31.7255C36.2699 31.3006 35.1029 30.3605 33.6761 29.6365L31.0823 28.3202L29.9195 29.8949C28.559 31.7372 27.3663 31.8565 24.5742 30.4306C22.3881 29.3138 17.0327 23.8025 17.0327 22.6698C17.0327 22.292 17.5398 21.3374 18.1591 20.5487L19.2856 19.1147L18.2014 16.5971C16.9899 13.7858 15.6337 13.178 14.1749 14.7923Z" fill="#025213"/>
</svg>
