<svg width="23" height="28" viewBox="0 0 23 28" fill="none" xmlns="http://www.w3.org/2000/svg">
<path fill-rule="evenodd" clip-rule="evenodd" d="M8.7745 0.379735C7.19461 0.882369 4.91223 3.23497 4.47419 4.81202C3.181 9.46636 6.41464 13.9043 11.0995 13.9043C17.2567 13.9043 20.334 6.49046 15.9805 2.14593C13.9579 0.127089 11.4776 -0.480925 8.7745 0.379735ZM8.81142 2.83772C5.63633 4.40113 5.64597 9.46337 8.82772 11.1079C12.0797 12.7887 15.7537 10.569 15.7537 6.92328C15.7537 3.32839 12.1375 1.20017 8.81142 2.83772ZM1.45375 16.9936C-0.394229 17.9267 -0.501995 21.7284 1.25452 24.0301C4.50379 28.2875 14.4362 29.1056 19.3848 25.5227C20.7298 24.549 22.3996 21.7995 22.4032 20.5529C22.4072 19.1161 21.6555 17.5328 20.7461 17.063C19.449 16.3925 2.76291 16.3324 1.45375 16.9936ZM2.1203 20.1374C2.12197 22.0445 3.17634 23.4533 5.37057 24.4812C7.09017 25.2867 7.64496 25.3731 11.0995 25.3731C14.5539 25.3731 15.1087 25.2867 16.8283 24.4812C19.0226 23.4533 20.0769 22.0445 20.0786 20.1374L20.0799 18.8907H11.0995H2.11897L2.1203 20.1374Z" fill="#025213"/>
</svg>
