<svg width="28" height="29" viewBox="0 0 28 29" fill="none" xmlns="http://www.w3.org/2000/svg">
<path fill-rule="evenodd" clip-rule="evenodd" d="M8.50179 0.612116C6.88212 1.47229 5.85551 3.03033 5.70489 4.85721L5.58487 6.31318H3.52537C2.3926 6.31318 1.46588 6.37474 1.46588 6.44971C1.46588 6.52494 0.995193 10.6951 0.419915 15.7167C-0.155363 20.7385 0.0276835 24.4704 0.0276835 24.7266C0.0276835 25.1654 0.0276842 25.1473 10.8795 25.7788C21.6006 25.4103 21.4699 25.4103 21.7314 25.1473C21.7314 24.8911 21.9144 20.7385 21.3391 15.7167C20.7638 10.6951 20.2932 6.52494 20.2932 6.44971C20.2932 6.37474 19.3664 6.31318 18.2337 6.31318H16.1742L16.0541 4.85721C15.8303 2.1428 13.5475 0 10.8795 0C10.1016 0 9.2337 0.223329 8.50179 0.612116ZM9.09615 1.49465C7.79367 2.14017 6.89964 3.48172 6.75373 5.00899L6.62926 6.31318H15.1363L14.9778 4.96874C14.622 1.94472 11.6862 0.210703 9.09615 1.49465ZM2.38344 8.48334C2.29532 9.09809 1.83928 13.0046 1.37017 17.164L1.07364 24.3321L10.8795 24.7266L20.9469 24.5951L20.3889 17.164C19.9197 13.0046 19.4637 9.09809 19.3756 8.48334L19.215 7.36538H17.6623C16.2801 7.36538 16.1093 7.42378 16.1093 7.89516C16.1093 8.18636 16.2555 8.66037 16.4343 8.94815C16.8585 9.63129 16.4121 10.3904 15.5863 10.3904C14.7606 10.3904 14.3142 9.63129 14.7383 8.94815C14.9172 8.66037 15.0634 8.18636 15.0634 7.89516C15.0634 7.38616 14.8984 7.36538 10.8795 7.36538C6.86068 7.36538 6.69567 7.38616 6.69567 7.89516C6.69567 8.18636 6.84185 8.66037 7.02071 8.94815C7.44484 9.63129 6.99848 10.3904 6.17269 10.3904C5.34691 10.3904 4.90055 9.63129 5.32468 8.94815C5.50354 8.66037 5.64971 8.18636 5.64971 7.89516C5.64971 7.42378 5.47896 7.36538 4.09673 7.36538H2.544L2.38344 8.48334Z" fill="#025213"/>
<path d="M27.7737 20.023C27.7737 24.454 24.2029 28.046 19.7982 28.046C15.3935 28.046 11.8228 24.454 11.8228 20.023C11.8228 15.592 15.3935 12 19.7982 12C24.2029 12 27.7737 15.592 27.7737 20.023Z" fill="#025213"/>
</svg>
