<svg width="102" height="71" viewBox="0 0 102 71" fill="none" xmlns="http://www.w3.org/2000/svg">
<path fill-rule="evenodd" clip-rule="evenodd" d="M0 5.527V10.518L50.25 10.259L100.5 10L100.794 5L101.088 0L50.544 0.268L0 0.536V5.527ZM0.3 5.5C0.3 8.525 0.487 9.763 0.716 8.25C0.945 6.738 0.945 4.263 0.716 2.75C0.487 1.238 0.3 2.475 0.3 5.5ZM0 35.527V40.518L50.25 40.259L100.5 40L100.794 35L101.088 30L50.544 30.268L0 30.536V35.527ZM0.3 35.5C0.3 38.525 0.487 39.763 0.716 38.25C0.945 36.737 0.945 34.263 0.716 32.75C0.487 31.237 0.3 32.475 0.3 35.5ZM0 65.527V70.518L50.25 70.259L100.5 70L100.794 65L101.088 60L50.544 60.268L0 60.536V65.527ZM0.3 65.5C0.3 68.525 0.487 69.763 0.716 68.25C0.945 66.737 0.945 64.263 0.716 62.75C0.487 61.237 0.3 62.475 0.3 65.5Z" fill="#025213"/>
</svg>
