<svg width="28" height="28" viewBox="0 0 28 28" fill="none" xmlns="http://www.w3.org/2000/svg">
<path fill-rule="evenodd" clip-rule="evenodd" d="M7.49381 0.433543C-1.84394 3.42895 -2.66628 16.4197 6.21783 20.5848C8.6683 21.7335 12.6305 21.7847 14.9979 20.6977L16.5732 19.9746L20.4855 23.8773L24.3977 27.78L25.7449 26.4328L27.0922 25.0855L23.2668 21.1886L19.4417 17.2916L20.4085 15.3829C21.2604 13.7016 21.3756 13.1519 21.3756 10.7702C21.3756 7.52282 20.481 5.26291 18.3534 3.13533C15.6733 0.455175 11.0284 -0.700233 7.49381 0.433543ZM7.71935 3.14105C4.71345 4.31459 2.44749 7.59376 2.44749 10.7702C2.44749 13.9902 4.72808 17.2458 7.80206 18.4139C10.9899 19.6253 14.0197 18.9516 16.4893 16.4823C18.8815 14.0901 19.5543 10.9903 18.3623 7.85367C17.5416 5.69332 15.7824 3.92649 13.6621 3.13342C11.5571 2.34576 9.75022 2.34798 7.71935 3.14105Z" fill="#025213"/>
</svg>
